<?xml version="1.0" encoding="UTF-8" standalone="no"?>
<!DOCTYPE svg PUBLIC "-//W3C//DTD SVG 1.1//EN"
 "http://www.w3.org/Graphics/SVG/1.1/DTD/svg11.dtd">
<!-- Generated by graphviz version 2.40.1 (20161225.0304)
 -->
<!-- Title: %3 Pages: 1 -->
<svg width="242pt" height="155pt"
 viewBox="0.00 0.00 241.89 155.00" xmlns="http://www.w3.org/2000/svg" xmlns:xlink="http://www.w3.org/1999/xlink">
<g id="graph0" class="graph" transform="scale(1 1) rotate(0) translate(4 151)">
<title>%3</title>
<polygon fill="#ffffff" stroke="transparent" points="-4,4 -4,-151 237.8904,-151 237.8904,4 -4,4"/>
<g id="clust1" class="cluster">
<title>cluster4,127</title>
<path fill="none" stroke="#000000" d="M35.9954,-8C35.9954,-8 193.9954,-8 193.9954,-8 199.9954,-8 205.9954,-14 205.9954,-20 205.9954,-20 205.9954,-71 205.9954,-71 205.9954,-77 199.9954,-83 193.9954,-83 193.9954,-83 35.9954,-83 35.9954,-83 29.9954,-83 23.9954,-77 23.9954,-71 23.9954,-71 23.9954,-20 23.9954,-20 23.9954,-14 29.9954,-8 35.9954,-8"/>
<text text-anchor="middle" x="182.4954" y="-15.8" font-family="Times,serif" font-size="14.00" fill="#000000">4,127</text>
</g>
<!-- μ -->
<g id="node1" class="node">
<title>μ</title>
<ellipse fill="none" stroke="#000000" cx="51.9954" cy="-129" rx="51.9908" ry="18"/>
<text text-anchor="middle" x="51.9954" y="-125.3" font-family="Times,serif" font-size="14.00" fill="#000000">μ ~ Normal</text>
</g>
<!-- likelihood -->
<g id="node3" class="node">
<title>likelihood</title>
<ellipse fill="#d3d3d3" stroke="#000000" cx="114.9954" cy="-57" rx="83.3857" ry="18"/>
<text text-anchor="middle" x="114.9954" y="-53.3" font-family="Times,serif" font-size="14.00" fill="#000000">likelihood ~ Normal</text>
</g>
<!-- μ&#45;&gt;likelihood -->
<g id="edge1" class="edge">
<title>μ&#45;&gt;likelihood</title>
<path fill="none" stroke="#000000" d="M67.2459,-111.5708C74.8705,-102.857 84.2443,-92.1441 92.6615,-82.5244"/>
<polygon fill="#000000" stroke="#000000" points="95.4966,-84.5994 99.4476,-74.7689 90.2285,-79.9899 95.4966,-84.5994"/>
</g>
<!-- σ -->
<g id="node2" class="node">
<title>σ</title>
<ellipse fill="none" stroke="#000000" cx="177.9954" cy="-129" rx="55.7903" ry="18"/>
<text text-anchor="middle" x="177.9954" y="-125.3" font-family="Times,serif" font-size="14.00" fill="#000000">σ ~ Uniform</text>
</g>
<!-- σ&#45;&gt;likelihood -->
<g id="edge2" class="edge">
<title>σ&#45;&gt;likelihood</title>
<path fill="none" stroke="#000000" d="M162.7448,-111.5708C155.1202,-102.857 145.7465,-92.1441 137.3293,-82.5244"/>
<polygon fill="#000000" stroke="#000000" points="139.7623,-79.9899 130.5432,-74.7689 134.4942,-84.5994 139.7623,-79.9899"/>
</g>
</g>
</svg>
