<?xml version="1.0" encoding="utf-8" standalone="no"?>
<!DOCTYPE svg PUBLIC "-//W3C//DTD SVG 1.1//EN"
  "http://www.w3.org/Graphics/SVG/1.1/DTD/svg11.dtd">
<!-- Created with matplotlib (https://matplotlib.org/) -->
<svg height="576pt" version="1.1" viewBox="0 0 576 576" width="576pt" xmlns="http://www.w3.org/2000/svg" xmlns:xlink="http://www.w3.org/1999/xlink">
 <defs>
  <style type="text/css">
*{stroke-linecap:butt;stroke-linejoin:round;}
  </style>
 </defs>
 <g id="figure_1">
  <g id="patch_1">
   <path d="M 0 576 
L 576 576 
L 576 0 
L 0 0 
z
" style="fill:#ffffff;"/>
  </g>
  <g id="axes_1">
   <g id="patch_2">
    <path d="M 53.425 260.6 
L 561.7 260.6 
L 561.7 30.8 
L 53.425 30.8 
z
" style="fill:#ffffff;"/>
   </g>
   <g id="matplotlib.axis_1">
    <g id="xtick_1">
     <g id="line2d_1">
      <defs>
       <path d="M 0 0 
L 0 3.5 
" id="maf61babc4a" style="stroke:#000000;stroke-width:0.8;"/>
      </defs>
      <g>
       <use style="stroke:#000000;stroke-width:0.8;" x="76.528409" xlink:href="#maf61babc4a" y="260.6"/>
      </g>
     </g>
     <g id="text_1">
      <!-- 0 -->
      <defs>
       <path d="M 31.78125 66.40625 
Q 24.171875 66.40625 20.328125 58.90625 
Q 16.5 51.421875 16.5 36.375 
Q 16.5 21.390625 20.328125 13.890625 
Q 24.171875 6.390625 31.78125 6.390625 
Q 39.453125 6.390625 43.28125 13.890625 
Q 47.125 21.390625 47.125 36.375 
Q 47.125 51.421875 43.28125 58.90625 
Q 39.453125 66.40625 31.78125 66.40625 
z
M 31.78125 74.21875 
Q 44.046875 74.21875 50.515625 64.515625 
Q 56.984375 54.828125 56.984375 36.375 
Q 56.984375 17.96875 50.515625 8.265625 
Q 44.046875 -1.421875 31.78125 -1.421875 
Q 19.53125 -1.421875 13.0625 8.265625 
Q 6.59375 17.96875 6.59375 36.375 
Q 6.59375 54.828125 13.0625 64.515625 
Q 19.53125 74.21875 31.78125 74.21875 
z
" id="DejaVuSans-48"/>
      </defs>
      <g transform="translate(71.438409 279.7575)scale(0.16 -0.16)">
       <use xlink:href="#DejaVuSans-48"/>
      </g>
     </g>
    </g>
    <g id="xtick_2">
     <g id="line2d_2">
      <g>
       <use style="stroke:#000000;stroke-width:0.8;" x="134.577176" xlink:href="#maf61babc4a" y="260.6"/>
      </g>
     </g>
     <g id="text_2">
      <!-- 25 -->
      <defs>
       <path d="M 19.1875 8.296875 
L 53.609375 8.296875 
L 53.609375 0 
L 7.328125 0 
L 7.328125 8.296875 
Q 12.9375 14.109375 22.625 23.890625 
Q 32.328125 33.6875 34.8125 36.53125 
Q 39.546875 41.84375 41.421875 45.53125 
Q 43.3125 49.21875 43.3125 52.78125 
Q 43.3125 58.59375 39.234375 62.25 
Q 35.15625 65.921875 28.609375 65.921875 
Q 23.96875 65.921875 18.8125 64.3125 
Q 13.671875 62.703125 7.8125 59.421875 
L 7.8125 69.390625 
Q 13.765625 71.78125 18.9375 73 
Q 24.125 74.21875 28.421875 74.21875 
Q 39.75 74.21875 46.484375 68.546875 
Q 53.21875 62.890625 53.21875 53.421875 
Q 53.21875 48.921875 51.53125 44.890625 
Q 49.859375 40.875 45.40625 35.40625 
Q 44.1875 33.984375 37.640625 27.21875 
Q 31.109375 20.453125 19.1875 8.296875 
z
" id="DejaVuSans-50"/>
       <path d="M 10.796875 72.90625 
L 49.515625 72.90625 
L 49.515625 64.59375 
L 19.828125 64.59375 
L 19.828125 46.734375 
Q 21.96875 47.46875 24.109375 47.828125 
Q 26.265625 48.1875 28.421875 48.1875 
Q 40.625 48.1875 47.75 41.5 
Q 54.890625 34.8125 54.890625 23.390625 
Q 54.890625 11.625 47.5625 5.09375 
Q 40.234375 -1.421875 26.90625 -1.421875 
Q 22.3125 -1.421875 17.546875 -0.640625 
Q 12.796875 0.140625 7.71875 1.703125 
L 7.71875 11.625 
Q 12.109375 9.234375 16.796875 8.0625 
Q 21.484375 6.890625 26.703125 6.890625 
Q 35.15625 6.890625 40.078125 11.328125 
Q 45.015625 15.765625 45.015625 23.390625 
Q 45.015625 31 40.078125 35.4375 
Q 35.15625 39.890625 26.703125 39.890625 
Q 22.75 39.890625 18.8125 39.015625 
Q 14.890625 38.140625 10.796875 36.28125 
z
" id="DejaVuSans-53"/>
      </defs>
      <g transform="translate(124.397176 279.7575)scale(0.16 -0.16)">
       <use xlink:href="#DejaVuSans-50"/>
       <use x="63.623047" xlink:href="#DejaVuSans-53"/>
      </g>
     </g>
    </g>
    <g id="xtick_3">
     <g id="line2d_3">
      <g>
       <use style="stroke:#000000;stroke-width:0.8;" x="192.625942" xlink:href="#maf61babc4a" y="260.6"/>
      </g>
     </g>
     <g id="text_3">
      <!-- 50 -->
      <g transform="translate(182.445942 279.7575)scale(0.16 -0.16)">
       <use xlink:href="#DejaVuSans-53"/>
       <use x="63.623047" xlink:href="#DejaVuSans-48"/>
      </g>
     </g>
    </g>
    <g id="xtick_4">
     <g id="line2d_4">
      <g>
       <use style="stroke:#000000;stroke-width:0.8;" x="250.674709" xlink:href="#maf61babc4a" y="260.6"/>
      </g>
     </g>
     <g id="text_4">
      <!-- 75 -->
      <defs>
       <path d="M 8.203125 72.90625 
L 55.078125 72.90625 
L 55.078125 68.703125 
L 28.609375 0 
L 18.3125 0 
L 43.21875 64.59375 
L 8.203125 64.59375 
z
" id="DejaVuSans-55"/>
      </defs>
      <g transform="translate(240.494709 279.7575)scale(0.16 -0.16)">
       <use xlink:href="#DejaVuSans-55"/>
       <use x="63.623047" xlink:href="#DejaVuSans-53"/>
      </g>
     </g>
    </g>
    <g id="xtick_5">
     <g id="line2d_5">
      <g>
       <use style="stroke:#000000;stroke-width:0.8;" x="308.723475" xlink:href="#maf61babc4a" y="260.6"/>
      </g>
     </g>
     <g id="text_5">
      <!-- 100 -->
      <defs>
       <path d="M 12.40625 8.296875 
L 28.515625 8.296875 
L 28.515625 63.921875 
L 10.984375 60.40625 
L 10.984375 69.390625 
L 28.421875 72.90625 
L 38.28125 72.90625 
L 38.28125 8.296875 
L 54.390625 8.296875 
L 54.390625 0 
L 12.40625 0 
z
" id="DejaVuSans-49"/>
      </defs>
      <g transform="translate(293.453475 279.7575)scale(0.16 -0.16)">
       <use xlink:href="#DejaVuSans-49"/>
       <use x="63.623047" xlink:href="#DejaVuSans-48"/>
       <use x="127.246094" xlink:href="#DejaVuSans-48"/>
      </g>
     </g>
    </g>
    <g id="xtick_6">
     <g id="line2d_6">
      <g>
       <use style="stroke:#000000;stroke-width:0.8;" x="366.772242" xlink:href="#maf61babc4a" y="260.6"/>
      </g>
     </g>
     <g id="text_6">
      <!-- 125 -->
      <g transform="translate(351.502242 279.7575)scale(0.16 -0.16)">
       <use xlink:href="#DejaVuSans-49"/>
       <use x="63.623047" xlink:href="#DejaVuSans-50"/>
       <use x="127.246094" xlink:href="#DejaVuSans-53"/>
      </g>
     </g>
    </g>
    <g id="xtick_7">
     <g id="line2d_7">
      <g>
       <use style="stroke:#000000;stroke-width:0.8;" x="424.821008" xlink:href="#maf61babc4a" y="260.6"/>
      </g>
     </g>
     <g id="text_7">
      <!-- 150 -->
      <g transform="translate(409.551008 279.7575)scale(0.16 -0.16)">
       <use xlink:href="#DejaVuSans-49"/>
       <use x="63.623047" xlink:href="#DejaVuSans-53"/>
       <use x="127.246094" xlink:href="#DejaVuSans-48"/>
      </g>
     </g>
    </g>
    <g id="xtick_8">
     <g id="line2d_8">
      <g>
       <use style="stroke:#000000;stroke-width:0.8;" x="482.869775" xlink:href="#maf61babc4a" y="260.6"/>
      </g>
     </g>
     <g id="text_8">
      <!-- 175 -->
      <g transform="translate(467.599775 279.7575)scale(0.16 -0.16)">
       <use xlink:href="#DejaVuSans-49"/>
       <use x="63.623047" xlink:href="#DejaVuSans-55"/>
       <use x="127.246094" xlink:href="#DejaVuSans-53"/>
      </g>
     </g>
    </g>
    <g id="xtick_9">
     <g id="line2d_9">
      <g>
       <use style="stroke:#000000;stroke-width:0.8;" x="540.918542" xlink:href="#maf61babc4a" y="260.6"/>
      </g>
     </g>
     <g id="text_9">
      <!-- 200 -->
      <g transform="translate(525.648542 279.7575)scale(0.16 -0.16)">
       <use xlink:href="#DejaVuSans-50"/>
       <use x="63.623047" xlink:href="#DejaVuSans-48"/>
       <use x="127.246094" xlink:href="#DejaVuSans-48"/>
      </g>
     </g>
    </g>
    <g id="xtick_10">
     <g id="line2d_10">
      <defs>
       <path d="M 0 0 
L 0 2 
" id="md85cb6b40e" style="stroke:#000000;stroke-width:0.6;"/>
      </defs>
      <g>
       <use style="stroke:#000000;stroke-width:0.6;" x="62.016217" xlink:href="#md85cb6b40e" y="260.6"/>
      </g>
     </g>
    </g>
    <g id="xtick_11">
     <g id="line2d_11">
      <g>
       <use style="stroke:#000000;stroke-width:0.6;" x="91.040601" xlink:href="#md85cb6b40e" y="260.6"/>
      </g>
     </g>
    </g>
    <g id="xtick_12">
     <g id="line2d_12">
      <g>
       <use style="stroke:#000000;stroke-width:0.6;" x="105.552792" xlink:href="#md85cb6b40e" y="260.6"/>
      </g>
     </g>
    </g>
    <g id="xtick_13">
     <g id="line2d_13">
      <g>
       <use style="stroke:#000000;stroke-width:0.6;" x="120.064984" xlink:href="#md85cb6b40e" y="260.6"/>
      </g>
     </g>
    </g>
    <g id="xtick_14">
     <g id="line2d_14">
      <g>
       <use style="stroke:#000000;stroke-width:0.6;" x="149.089367" xlink:href="#md85cb6b40e" y="260.6"/>
      </g>
     </g>
    </g>
    <g id="xtick_15">
     <g id="line2d_15">
      <g>
       <use style="stroke:#000000;stroke-width:0.6;" x="163.601559" xlink:href="#md85cb6b40e" y="260.6"/>
      </g>
     </g>
    </g>
    <g id="xtick_16">
     <g id="line2d_16">
      <g>
       <use style="stroke:#000000;stroke-width:0.6;" x="178.113751" xlink:href="#md85cb6b40e" y="260.6"/>
      </g>
     </g>
    </g>
    <g id="xtick_17">
     <g id="line2d_17">
      <g>
       <use style="stroke:#000000;stroke-width:0.6;" x="207.138134" xlink:href="#md85cb6b40e" y="260.6"/>
      </g>
     </g>
    </g>
    <g id="xtick_18">
     <g id="line2d_18">
      <g>
       <use style="stroke:#000000;stroke-width:0.6;" x="221.650325" xlink:href="#md85cb6b40e" y="260.6"/>
      </g>
     </g>
    </g>
    <g id="xtick_19">
     <g id="line2d_19">
      <g>
       <use style="stroke:#000000;stroke-width:0.6;" x="236.162517" xlink:href="#md85cb6b40e" y="260.6"/>
      </g>
     </g>
    </g>
    <g id="xtick_20">
     <g id="line2d_20">
      <g>
       <use style="stroke:#000000;stroke-width:0.6;" x="265.1869" xlink:href="#md85cb6b40e" y="260.6"/>
      </g>
     </g>
    </g>
    <g id="xtick_21">
     <g id="line2d_21">
      <g>
       <use style="stroke:#000000;stroke-width:0.6;" x="279.699092" xlink:href="#md85cb6b40e" y="260.6"/>
      </g>
     </g>
    </g>
    <g id="xtick_22">
     <g id="line2d_22">
      <g>
       <use style="stroke:#000000;stroke-width:0.6;" x="294.211284" xlink:href="#md85cb6b40e" y="260.6"/>
      </g>
     </g>
    </g>
    <g id="xtick_23">
     <g id="line2d_23">
      <g>
       <use style="stroke:#000000;stroke-width:0.6;" x="323.235667" xlink:href="#md85cb6b40e" y="260.6"/>
      </g>
     </g>
    </g>
    <g id="xtick_24">
     <g id="line2d_24">
      <g>
       <use style="stroke:#000000;stroke-width:0.6;" x="337.747859" xlink:href="#md85cb6b40e" y="260.6"/>
      </g>
     </g>
    </g>
    <g id="xtick_25">
     <g id="line2d_25">
      <g>
       <use style="stroke:#000000;stroke-width:0.6;" x="352.26005" xlink:href="#md85cb6b40e" y="260.6"/>
      </g>
     </g>
    </g>
    <g id="xtick_26">
     <g id="line2d_26">
      <g>
       <use style="stroke:#000000;stroke-width:0.6;" x="381.284434" xlink:href="#md85cb6b40e" y="260.6"/>
      </g>
     </g>
    </g>
    <g id="xtick_27">
     <g id="line2d_27">
      <g>
       <use style="stroke:#000000;stroke-width:0.6;" x="395.796625" xlink:href="#md85cb6b40e" y="260.6"/>
      </g>
     </g>
    </g>
    <g id="xtick_28">
     <g id="line2d_28">
      <g>
       <use style="stroke:#000000;stroke-width:0.6;" x="410.308817" xlink:href="#md85cb6b40e" y="260.6"/>
      </g>
     </g>
    </g>
    <g id="xtick_29">
     <g id="line2d_29">
      <g>
       <use style="stroke:#000000;stroke-width:0.6;" x="439.3332" xlink:href="#md85cb6b40e" y="260.6"/>
      </g>
     </g>
    </g>
    <g id="xtick_30">
     <g id="line2d_30">
      <g>
       <use style="stroke:#000000;stroke-width:0.6;" x="453.845392" xlink:href="#md85cb6b40e" y="260.6"/>
      </g>
     </g>
    </g>
    <g id="xtick_31">
     <g id="line2d_31">
      <g>
       <use style="stroke:#000000;stroke-width:0.6;" x="468.357583" xlink:href="#md85cb6b40e" y="260.6"/>
      </g>
     </g>
    </g>
    <g id="xtick_32">
     <g id="line2d_32">
      <g>
       <use style="stroke:#000000;stroke-width:0.6;" x="497.381967" xlink:href="#md85cb6b40e" y="260.6"/>
      </g>
     </g>
    </g>
    <g id="xtick_33">
     <g id="line2d_33">
      <g>
       <use style="stroke:#000000;stroke-width:0.6;" x="511.894158" xlink:href="#md85cb6b40e" y="260.6"/>
      </g>
     </g>
    </g>
    <g id="xtick_34">
     <g id="line2d_34">
      <g>
       <use style="stroke:#000000;stroke-width:0.6;" x="526.40635" xlink:href="#md85cb6b40e" y="260.6"/>
      </g>
     </g>
    </g>
    <g id="xtick_35">
     <g id="line2d_35">
      <g>
       <use style="stroke:#000000;stroke-width:0.6;" x="555.430733" xlink:href="#md85cb6b40e" y="260.6"/>
      </g>
     </g>
    </g>
   </g>
   <g id="matplotlib.axis_2">
    <g id="ytick_1">
     <g id="line2d_36">
      <defs>
       <path d="M 0 0 
L -3.5 0 
" id="m0a1587abcf" style="stroke:#000000;stroke-width:0.8;"/>
      </defs>
      <g>
       <use style="stroke:#000000;stroke-width:0.8;" x="53.425" xlink:href="#m0a1587abcf" y="231.338254"/>
      </g>
     </g>
     <g id="text_10">
      <!-- 2 -->
      <g transform="translate(36.245 237.417004)scale(0.16 -0.16)">
       <use xlink:href="#DejaVuSans-50"/>
      </g>
     </g>
    </g>
    <g id="ytick_2">
     <g id="line2d_37">
      <g>
       <use style="stroke:#000000;stroke-width:0.8;" x="53.425" xlink:href="#m0a1587abcf" y="171.08404"/>
      </g>
     </g>
     <g id="text_11">
      <!-- 4 -->
      <defs>
       <path d="M 37.796875 64.3125 
L 12.890625 25.390625 
L 37.796875 25.390625 
z
M 35.203125 72.90625 
L 47.609375 72.90625 
L 47.609375 25.390625 
L 58.015625 25.390625 
L 58.015625 17.1875 
L 47.609375 17.1875 
L 47.609375 0 
L 37.796875 0 
L 37.796875 17.1875 
L 4.890625 17.1875 
L 4.890625 26.703125 
z
" id="DejaVuSans-52"/>
      </defs>
      <g transform="translate(36.245 177.16279)scale(0.16 -0.16)">
       <use xlink:href="#DejaVuSans-52"/>
      </g>
     </g>
    </g>
    <g id="ytick_3">
     <g id="line2d_38">
      <g>
       <use style="stroke:#000000;stroke-width:0.8;" x="53.425" xlink:href="#m0a1587abcf" y="110.829825"/>
      </g>
     </g>
     <g id="text_12">
      <!-- 6 -->
      <defs>
       <path d="M 33.015625 40.375 
Q 26.375 40.375 22.484375 35.828125 
Q 18.609375 31.296875 18.609375 23.390625 
Q 18.609375 15.53125 22.484375 10.953125 
Q 26.375 6.390625 33.015625 6.390625 
Q 39.65625 6.390625 43.53125 10.953125 
Q 47.40625 15.53125 47.40625 23.390625 
Q 47.40625 31.296875 43.53125 35.828125 
Q 39.65625 40.375 33.015625 40.375 
z
M 52.59375 71.296875 
L 52.59375 62.3125 
Q 48.875 64.0625 45.09375 64.984375 
Q 41.3125 65.921875 37.59375 65.921875 
Q 27.828125 65.921875 22.671875 59.328125 
Q 17.53125 52.734375 16.796875 39.40625 
Q 19.671875 43.65625 24.015625 45.921875 
Q 28.375 48.1875 33.59375 48.1875 
Q 44.578125 48.1875 50.953125 41.515625 
Q 57.328125 34.859375 57.328125 23.390625 
Q 57.328125 12.15625 50.6875 5.359375 
Q 44.046875 -1.421875 33.015625 -1.421875 
Q 20.359375 -1.421875 13.671875 8.265625 
Q 6.984375 17.96875 6.984375 36.375 
Q 6.984375 53.65625 15.1875 63.9375 
Q 23.390625 74.21875 37.203125 74.21875 
Q 40.921875 74.21875 44.703125 73.484375 
Q 48.484375 72.75 52.59375 71.296875 
z
" id="DejaVuSans-54"/>
      </defs>
      <g transform="translate(36.245 116.908575)scale(0.16 -0.16)">
       <use xlink:href="#DejaVuSans-54"/>
      </g>
     </g>
    </g>
    <g id="ytick_4">
     <g id="line2d_39">
      <g>
       <use style="stroke:#000000;stroke-width:0.8;" x="53.425" xlink:href="#m0a1587abcf" y="50.575611"/>
      </g>
     </g>
     <g id="text_13">
      <!-- 8 -->
      <defs>
       <path d="M 31.78125 34.625 
Q 24.75 34.625 20.71875 30.859375 
Q 16.703125 27.09375 16.703125 20.515625 
Q 16.703125 13.921875 20.71875 10.15625 
Q 24.75 6.390625 31.78125 6.390625 
Q 38.8125 6.390625 42.859375 10.171875 
Q 46.921875 13.96875 46.921875 20.515625 
Q 46.921875 27.09375 42.890625 30.859375 
Q 38.875 34.625 31.78125 34.625 
z
M 21.921875 38.8125 
Q 15.578125 40.375 12.03125 44.71875 
Q 8.5 49.078125 8.5 55.328125 
Q 8.5 64.0625 14.71875 69.140625 
Q 20.953125 74.21875 31.78125 74.21875 
Q 42.671875 74.21875 48.875 69.140625 
Q 55.078125 64.0625 55.078125 55.328125 
Q 55.078125 49.078125 51.53125 44.71875 
Q 48 40.375 41.703125 38.8125 
Q 48.828125 37.15625 52.796875 32.3125 
Q 56.78125 27.484375 56.78125 20.515625 
Q 56.78125 9.90625 50.3125 4.234375 
Q 43.84375 -1.421875 31.78125 -1.421875 
Q 19.734375 -1.421875 13.25 4.234375 
Q 6.78125 9.90625 6.78125 20.515625 
Q 6.78125 27.484375 10.78125 32.3125 
Q 14.796875 37.15625 21.921875 38.8125 
z
M 18.3125 54.390625 
Q 18.3125 48.734375 21.84375 45.5625 
Q 25.390625 42.390625 31.78125 42.390625 
Q 38.140625 42.390625 41.71875 45.5625 
Q 45.3125 48.734375 45.3125 54.390625 
Q 45.3125 60.0625 41.71875 63.234375 
Q 38.140625 66.40625 31.78125 66.40625 
Q 25.390625 66.40625 21.84375 63.234375 
Q 18.3125 60.0625 18.3125 54.390625 
z
" id="DejaVuSans-56"/>
      </defs>
      <g transform="translate(36.245 56.654361)scale(0.16 -0.16)">
       <use xlink:href="#DejaVuSans-56"/>
      </g>
     </g>
    </g>
    <g id="ytick_5">
     <g id="line2d_40">
      <defs>
       <path d="M 0 0 
L -2 0 
" id="mbd0f134bec" style="stroke:#000000;stroke-width:0.6;"/>
      </defs>
      <g>
       <use style="stroke:#000000;stroke-width:0.6;" x="53.425" xlink:href="#mbd0f134bec" y="246.401808"/>
      </g>
     </g>
    </g>
    <g id="ytick_6">
     <g id="line2d_41">
      <g>
       <use style="stroke:#000000;stroke-width:0.6;" x="53.425" xlink:href="#mbd0f134bec" y="216.274701"/>
      </g>
     </g>
    </g>
    <g id="ytick_7">
     <g id="line2d_42">
      <g>
       <use style="stroke:#000000;stroke-width:0.6;" x="53.425" xlink:href="#mbd0f134bec" y="201.211147"/>
      </g>
     </g>
    </g>
    <g id="ytick_8">
     <g id="line2d_43">
      <g>
       <use style="stroke:#000000;stroke-width:0.6;" x="53.425" xlink:href="#mbd0f134bec" y="186.147593"/>
      </g>
     </g>
    </g>
    <g id="ytick_9">
     <g id="line2d_44">
      <g>
       <use style="stroke:#000000;stroke-width:0.6;" x="53.425" xlink:href="#mbd0f134bec" y="156.020486"/>
      </g>
     </g>
    </g>
    <g id="ytick_10">
     <g id="line2d_45">
      <g>
       <use style="stroke:#000000;stroke-width:0.6;" x="53.425" xlink:href="#mbd0f134bec" y="140.956932"/>
      </g>
     </g>
    </g>
    <g id="ytick_11">
     <g id="line2d_46">
      <g>
       <use style="stroke:#000000;stroke-width:0.6;" x="53.425" xlink:href="#mbd0f134bec" y="125.893379"/>
      </g>
     </g>
    </g>
    <g id="ytick_12">
     <g id="line2d_47">
      <g>
       <use style="stroke:#000000;stroke-width:0.6;" x="53.425" xlink:href="#mbd0f134bec" y="95.766271"/>
      </g>
     </g>
    </g>
    <g id="ytick_13">
     <g id="line2d_48">
      <g>
       <use style="stroke:#000000;stroke-width:0.6;" x="53.425" xlink:href="#mbd0f134bec" y="80.702718"/>
      </g>
     </g>
    </g>
    <g id="ytick_14">
     <g id="line2d_49">
      <g>
       <use style="stroke:#000000;stroke-width:0.6;" x="53.425" xlink:href="#mbd0f134bec" y="65.639164"/>
      </g>
     </g>
    </g>
    <g id="ytick_15">
     <g id="line2d_50">
      <g>
       <use style="stroke:#000000;stroke-width:0.6;" x="53.425" xlink:href="#mbd0f134bec" y="35.512057"/>
      </g>
     </g>
    </g>
   </g>
   <g id="line2d_51">
    <path clip-path="url(#p4cfddc9f56)" d="M 76.528409 135.838803 
L 78.85036 122.428073 
L 81.17231 41.245455 
L 83.494261 132.196922 
L 85.816212 147.19256 
L 88.138162 92.300538 
L 90.460113 211.961013 
L 92.782064 134.759294 
L 95.104014 127.213156 
L 97.425965 194.471518 
L 99.747916 149.351836 
L 102.069866 207.591081 
L 104.391817 99.603176 
L 106.713768 107.085755 
L 109.035718 197.295468 
L 111.357669 156.770855 
L 113.67962 149.286212 
L 116.00157 84.533608 
L 118.323521 149.389577 
L 120.645472 159.045827 
L 122.967422 71.036408 
L 125.289373 136.899264 
L 127.611324 211.888033 
L 129.933274 188.453755 
L 132.255225 163.38357 
L 134.577176 149.797724 
L 136.899126 160.79293 
L 139.221077 207.035545 
L 141.543028 197.311141 
L 143.864978 127.523736 
L 146.186929 220.091539 
L 148.50888 193.029639 
L 150.83083 202.180191 
L 153.152781 114.795269 
L 155.474732 165.795249 
L 157.796682 135.279265 
L 160.118633 127.233299 
L 162.440584 143.308157 
L 164.762534 87.583145 
L 167.084485 119.404899 
L 169.406436 102.255215 
L 171.728386 210.464478 
L 174.050337 219.068901 
L 176.372288 202.873023 
L 178.694238 166.090286 
L 181.016189 48.115948 
L 183.33814 121.093975 
L 185.66009 216.824126 
L 187.982041 199.405995 
L 190.303992 138.188785 
L 192.625942 238.937953 
L 194.947893 134.430453 
L 197.269844 247.386276 
L 199.591794 164.746836 
L 201.913745 203.365281 
L 204.235696 148.176875 
L 206.557646 125.317196 
L 208.879597 143.430381 
L 211.201548 232.482494 
L 213.523498 224.16199 
L 215.845449 223.578531 
L 218.167399 123.173765 
L 220.48935 114.021641 
L 222.811301 121.962363 
L 225.133251 107.685584 
L 227.455202 207.511359 
L 229.777153 140.127305 
L 232.099103 145.447243 
L 234.421054 158.978954 
L 236.743005 49.30531 
L 239.064955 208.998284 
L 241.386906 245.995366 
L 243.708857 138.29724 
L 246.030807 108.892099 
L 248.352758 250.154545 
L 250.674709 76.80619 
L 252.996659 223.457102 
L 255.31861 176.365863 
L 257.640561 244.554773 
L 259.962511 202.130985 
L 262.284462 207.021261 
L 264.606413 149.136334 
L 266.928363 214.068575 
L 269.250314 107.794089 
L 271.572265 230.096808 
L 273.894215 107.151186 
L 276.216166 246.916157 
L 278.538117 131.241609 
L 280.860067 195.826167 
L 283.182018 145.895849 
L 285.503969 146.314889 
L 287.825919 203.639516 
L 290.14787 96.433754 
L 292.469821 131.963955 
L 294.791771 148.096993 
L 297.113722 146.448518 
L 299.435673 148.028441 
L 301.757623 113.952742 
L 304.079574 219.741407 
L 306.401525 210.369502 
L 308.723475 135.182835 
L 311.045426 175.320882 
L 313.367377 128.001034 
L 315.689327 112.282595 
L 318.011278 228.742052 
L 320.333229 236.642424 
L 322.655179 242.217833 
L 324.97713 191.071418 
L 327.299081 91.312281 
L 329.621031 193.420425 
L 331.942982 89.188214 
L 334.264933 243.317585 
L 336.586883 248.692324 
L 338.908834 112.467245 
L 341.230785 134.630612 
L 343.552735 63.201716 
L 345.874686 241.135769 
L 348.196637 230.64896 
L 350.518587 243.975644 
L 352.840538 249.051995 
L 355.162489 127.117179 
L 357.484439 220.535416 
L 359.80639 153.710981 
L 362.128341 106.219472 
L 364.450291 200.54682 
L 366.772242 146.219723 
L 369.094193 158.978979 
L 371.416143 226.64049 
L 373.738094 92.880574 
L 376.060045 155.575865 
L 378.381995 97.320082 
L 380.703946 204.966409 
L 383.025897 234.944245 
L 385.347847 138.591049 
L 387.669798 164.466813 
L 389.991749 153.264043 
L 392.313699 131.627097 
L 394.63565 209.339673 
L 396.957601 85.767251 
L 399.279551 107.512176 
L 401.601502 124.422945 
L 403.923452 110.878851 
L 406.245403 209.469635 
L 408.567354 134.727012 
L 410.889304 114.131606 
L 413.211255 224.299556 
L 415.533206 92.645975 
L 417.855156 205.250412 
L 420.177107 205.185963 
L 422.499058 196.823689 
L 424.821008 141.694182 
L 427.142959 157.232598 
L 429.46491 155.638295 
L 431.78686 150.971203 
L 434.108811 151.758598 
L 436.430762 133.101078 
L 438.752712 186.593708 
L 441.074663 120.607474 
L 443.396614 129.107009 
L 445.718564 240.295456 
L 448.040515 238.41688 
L 450.362466 54.397544 
L 452.684416 207.089761 
L 455.006367 96.429689 
L 457.328318 154.66553 
L 459.650268 228.111481 
L 461.972219 150.398989 
L 464.29417 156.751644 
L 466.61612 149.539474 
L 468.938071 98.375717 
L 471.260022 212.726203 
L 473.581972 223.868752 
L 475.903923 211.594 
L 478.225874 238.069966 
L 480.547824 103.825351 
L 482.869775 115.652344 
L 485.191726 235.736698 
L 487.513676 107.746085 
L 489.835627 142.760068 
L 492.157578 154.309438 
L 494.479528 187.717249 
L 496.801479 115.333148 
L 501.44538 227.172623 
L 503.767331 117.191231 
L 506.089282 131.320775 
L 508.411232 81.010914 
L 510.733183 137.418517 
L 513.055134 66.777932 
L 515.377084 199.232296 
L 517.699035 115.597053 
L 520.020986 107.514188 
L 522.342936 111.318814 
L 524.664887 123.699989 
L 526.986838 87.944058 
L 529.308788 249.333715 
L 531.630739 237.740701 
L 533.95269 204.671648 
L 536.27464 121.537055 
L 538.596591 234.553439 
L 538.596591 234.553439 
" style="fill:none;stroke:#000000;stroke-dasharray:1.5,2.475;stroke-dashoffset:0;stroke-width:1.5;"/>
    <defs>
     <path d="M 0 1.5 
C 0.397805 1.5 0.77937 1.341951 1.06066 1.06066 
C 1.341951 0.77937 1.5 0.397805 1.5 0 
C 1.5 -0.397805 1.341951 -0.77937 1.06066 -1.06066 
C 0.77937 -1.341951 0.397805 -1.5 0 -1.5 
C -0.397805 -1.5 -0.77937 -1.341951 -1.06066 -1.06066 
C -1.341951 -0.77937 -1.5 -0.397805 -1.5 0 
C -1.5 0.397805 -1.341951 0.77937 -1.06066 1.06066 
C -0.77937 1.341951 -0.397805 1.5 0 1.5 
z
" id="m6d2b5dff27" style="stroke:#000000;"/>
    </defs>
    <g clip-path="url(#p4cfddc9f56)">
     <use style="stroke:#000000;" x="76.528409" xlink:href="#m6d2b5dff27" y="135.838803"/>
     <use style="stroke:#000000;" x="78.85036" xlink:href="#m6d2b5dff27" y="122.428073"/>
     <use style="stroke:#000000;" x="81.17231" xlink:href="#m6d2b5dff27" y="41.245455"/>
     <use style="stroke:#000000;" x="83.494261" xlink:href="#m6d2b5dff27" y="132.196922"/>
     <use style="stroke:#000000;" x="85.816212" xlink:href="#m6d2b5dff27" y="147.19256"/>
     <use style="stroke:#000000;" x="88.138162" xlink:href="#m6d2b5dff27" y="92.300538"/>
     <use style="stroke:#000000;" x="90.460113" xlink:href="#m6d2b5dff27" y="211.961013"/>
     <use style="stroke:#000000;" x="92.782064" xlink:href="#m6d2b5dff27" y="134.759294"/>
     <use style="stroke:#000000;" x="95.104014" xlink:href="#m6d2b5dff27" y="127.213156"/>
     <use style="stroke:#000000;" x="97.425965" xlink:href="#m6d2b5dff27" y="194.471518"/>
     <use style="stroke:#000000;" x="99.747916" xlink:href="#m6d2b5dff27" y="149.351836"/>
     <use style="stroke:#000000;" x="102.069866" xlink:href="#m6d2b5dff27" y="207.591081"/>
     <use style="stroke:#000000;" x="104.391817" xlink:href="#m6d2b5dff27" y="99.603176"/>
     <use style="stroke:#000000;" x="106.713768" xlink:href="#m6d2b5dff27" y="107.085755"/>
     <use style="stroke:#000000;" x="109.035718" xlink:href="#m6d2b5dff27" y="197.295468"/>
     <use style="stroke:#000000;" x="111.357669" xlink:href="#m6d2b5dff27" y="156.770855"/>
     <use style="stroke:#000000;" x="113.67962" xlink:href="#m6d2b5dff27" y="149.286212"/>
     <use style="stroke:#000000;" x="116.00157" xlink:href="#m6d2b5dff27" y="84.533608"/>
     <use style="stroke:#000000;" x="118.323521" xlink:href="#m6d2b5dff27" y="149.389577"/>
     <use style="stroke:#000000;" x="120.645472" xlink:href="#m6d2b5dff27" y="159.045827"/>
     <use style="stroke:#000000;" x="122.967422" xlink:href="#m6d2b5dff27" y="71.036408"/>
     <use style="stroke:#000000;" x="125.289373" xlink:href="#m6d2b5dff27" y="136.899264"/>
     <use style="stroke:#000000;" x="127.611324" xlink:href="#m6d2b5dff27" y="211.888033"/>
     <use style="stroke:#000000;" x="129.933274" xlink:href="#m6d2b5dff27" y="188.453755"/>
     <use style="stroke:#000000;" x="132.255225" xlink:href="#m6d2b5dff27" y="163.38357"/>
     <use style="stroke:#000000;" x="134.577176" xlink:href="#m6d2b5dff27" y="149.797724"/>
     <use style="stroke:#000000;" x="136.899126" xlink:href="#m6d2b5dff27" y="160.79293"/>
     <use style="stroke:#000000;" x="139.221077" xlink:href="#m6d2b5dff27" y="207.035545"/>
     <use style="stroke:#000000;" x="141.543028" xlink:href="#m6d2b5dff27" y="197.311141"/>
     <use style="stroke:#000000;" x="143.864978" xlink:href="#m6d2b5dff27" y="127.523736"/>
     <use style="stroke:#000000;" x="146.186929" xlink:href="#m6d2b5dff27" y="220.091539"/>
     <use style="stroke:#000000;" x="148.50888" xlink:href="#m6d2b5dff27" y="193.029639"/>
     <use style="stroke:#000000;" x="150.83083" xlink:href="#m6d2b5dff27" y="202.180191"/>
     <use style="stroke:#000000;" x="153.152781" xlink:href="#m6d2b5dff27" y="114.795269"/>
     <use style="stroke:#000000;" x="155.474732" xlink:href="#m6d2b5dff27" y="165.795249"/>
     <use style="stroke:#000000;" x="157.796682" xlink:href="#m6d2b5dff27" y="135.279265"/>
     <use style="stroke:#000000;" x="160.118633" xlink:href="#m6d2b5dff27" y="127.233299"/>
     <use style="stroke:#000000;" x="162.440584" xlink:href="#m6d2b5dff27" y="143.308157"/>
     <use style="stroke:#000000;" x="164.762534" xlink:href="#m6d2b5dff27" y="87.583145"/>
     <use style="stroke:#000000;" x="167.084485" xlink:href="#m6d2b5dff27" y="119.404899"/>
     <use style="stroke:#000000;" x="169.406436" xlink:href="#m6d2b5dff27" y="102.255215"/>
     <use style="stroke:#000000;" x="171.728386" xlink:href="#m6d2b5dff27" y="210.464478"/>
     <use style="stroke:#000000;" x="174.050337" xlink:href="#m6d2b5dff27" y="219.068901"/>
     <use style="stroke:#000000;" x="176.372288" xlink:href="#m6d2b5dff27" y="202.873023"/>
     <use style="stroke:#000000;" x="178.694238" xlink:href="#m6d2b5dff27" y="166.090286"/>
     <use style="stroke:#000000;" x="181.016189" xlink:href="#m6d2b5dff27" y="48.115948"/>
     <use style="stroke:#000000;" x="183.33814" xlink:href="#m6d2b5dff27" y="121.093975"/>
     <use style="stroke:#000000;" x="185.66009" xlink:href="#m6d2b5dff27" y="216.824126"/>
     <use style="stroke:#000000;" x="187.982041" xlink:href="#m6d2b5dff27" y="199.405995"/>
     <use style="stroke:#000000;" x="190.303992" xlink:href="#m6d2b5dff27" y="138.188785"/>
     <use style="stroke:#000000;" x="192.625942" xlink:href="#m6d2b5dff27" y="238.937953"/>
     <use style="stroke:#000000;" x="194.947893" xlink:href="#m6d2b5dff27" y="134.430453"/>
     <use style="stroke:#000000;" x="197.269844" xlink:href="#m6d2b5dff27" y="247.386276"/>
     <use style="stroke:#000000;" x="199.591794" xlink:href="#m6d2b5dff27" y="164.746836"/>
     <use style="stroke:#000000;" x="201.913745" xlink:href="#m6d2b5dff27" y="203.365281"/>
     <use style="stroke:#000000;" x="204.235696" xlink:href="#m6d2b5dff27" y="148.176875"/>
     <use style="stroke:#000000;" x="206.557646" xlink:href="#m6d2b5dff27" y="125.317196"/>
     <use style="stroke:#000000;" x="208.879597" xlink:href="#m6d2b5dff27" y="143.430381"/>
     <use style="stroke:#000000;" x="211.201548" xlink:href="#m6d2b5dff27" y="232.482494"/>
     <use style="stroke:#000000;" x="213.523498" xlink:href="#m6d2b5dff27" y="224.16199"/>
     <use style="stroke:#000000;" x="215.845449" xlink:href="#m6d2b5dff27" y="223.578531"/>
     <use style="stroke:#000000;" x="218.167399" xlink:href="#m6d2b5dff27" y="123.173765"/>
     <use style="stroke:#000000;" x="220.48935" xlink:href="#m6d2b5dff27" y="114.021641"/>
     <use style="stroke:#000000;" x="222.811301" xlink:href="#m6d2b5dff27" y="121.962363"/>
     <use style="stroke:#000000;" x="225.133251" xlink:href="#m6d2b5dff27" y="107.685584"/>
     <use style="stroke:#000000;" x="227.455202" xlink:href="#m6d2b5dff27" y="207.511359"/>
     <use style="stroke:#000000;" x="229.777153" xlink:href="#m6d2b5dff27" y="140.127305"/>
     <use style="stroke:#000000;" x="232.099103" xlink:href="#m6d2b5dff27" y="145.447243"/>
     <use style="stroke:#000000;" x="234.421054" xlink:href="#m6d2b5dff27" y="158.978954"/>
     <use style="stroke:#000000;" x="236.743005" xlink:href="#m6d2b5dff27" y="49.30531"/>
     <use style="stroke:#000000;" x="239.064955" xlink:href="#m6d2b5dff27" y="208.998284"/>
     <use style="stroke:#000000;" x="241.386906" xlink:href="#m6d2b5dff27" y="245.995366"/>
     <use style="stroke:#000000;" x="243.708857" xlink:href="#m6d2b5dff27" y="138.29724"/>
     <use style="stroke:#000000;" x="246.030807" xlink:href="#m6d2b5dff27" y="108.892099"/>
     <use style="stroke:#000000;" x="248.352758" xlink:href="#m6d2b5dff27" y="250.154545"/>
     <use style="stroke:#000000;" x="250.674709" xlink:href="#m6d2b5dff27" y="76.80619"/>
     <use style="stroke:#000000;" x="252.996659" xlink:href="#m6d2b5dff27" y="223.457102"/>
     <use style="stroke:#000000;" x="255.31861" xlink:href="#m6d2b5dff27" y="176.365863"/>
     <use style="stroke:#000000;" x="257.640561" xlink:href="#m6d2b5dff27" y="244.554773"/>
     <use style="stroke:#000000;" x="259.962511" xlink:href="#m6d2b5dff27" y="202.130985"/>
     <use style="stroke:#000000;" x="262.284462" xlink:href="#m6d2b5dff27" y="207.021261"/>
     <use style="stroke:#000000;" x="264.606413" xlink:href="#m6d2b5dff27" y="149.136334"/>
     <use style="stroke:#000000;" x="266.928363" xlink:href="#m6d2b5dff27" y="214.068575"/>
     <use style="stroke:#000000;" x="269.250314" xlink:href="#m6d2b5dff27" y="107.794089"/>
     <use style="stroke:#000000;" x="271.572265" xlink:href="#m6d2b5dff27" y="230.096808"/>
     <use style="stroke:#000000;" x="273.894215" xlink:href="#m6d2b5dff27" y="107.151186"/>
     <use style="stroke:#000000;" x="276.216166" xlink:href="#m6d2b5dff27" y="246.916157"/>
     <use style="stroke:#000000;" x="278.538117" xlink:href="#m6d2b5dff27" y="131.241609"/>
     <use style="stroke:#000000;" x="280.860067" xlink:href="#m6d2b5dff27" y="195.826167"/>
     <use style="stroke:#000000;" x="283.182018" xlink:href="#m6d2b5dff27" y="145.895849"/>
     <use style="stroke:#000000;" x="285.503969" xlink:href="#m6d2b5dff27" y="146.314889"/>
     <use style="stroke:#000000;" x="287.825919" xlink:href="#m6d2b5dff27" y="203.639516"/>
     <use style="stroke:#000000;" x="290.14787" xlink:href="#m6d2b5dff27" y="96.433754"/>
     <use style="stroke:#000000;" x="292.469821" xlink:href="#m6d2b5dff27" y="131.963955"/>
     <use style="stroke:#000000;" x="294.791771" xlink:href="#m6d2b5dff27" y="148.096993"/>
     <use style="stroke:#000000;" x="297.113722" xlink:href="#m6d2b5dff27" y="146.448518"/>
     <use style="stroke:#000000;" x="299.435673" xlink:href="#m6d2b5dff27" y="148.028441"/>
     <use style="stroke:#000000;" x="301.757623" xlink:href="#m6d2b5dff27" y="113.952742"/>
     <use style="stroke:#000000;" x="304.079574" xlink:href="#m6d2b5dff27" y="219.741407"/>
     <use style="stroke:#000000;" x="306.401525" xlink:href="#m6d2b5dff27" y="210.369502"/>
     <use style="stroke:#000000;" x="308.723475" xlink:href="#m6d2b5dff27" y="135.182835"/>
     <use style="stroke:#000000;" x="311.045426" xlink:href="#m6d2b5dff27" y="175.320882"/>
     <use style="stroke:#000000;" x="313.367377" xlink:href="#m6d2b5dff27" y="128.001034"/>
     <use style="stroke:#000000;" x="315.689327" xlink:href="#m6d2b5dff27" y="112.282595"/>
     <use style="stroke:#000000;" x="318.011278" xlink:href="#m6d2b5dff27" y="228.742052"/>
     <use style="stroke:#000000;" x="320.333229" xlink:href="#m6d2b5dff27" y="236.642424"/>
     <use style="stroke:#000000;" x="322.655179" xlink:href="#m6d2b5dff27" y="242.217833"/>
     <use style="stroke:#000000;" x="324.97713" xlink:href="#m6d2b5dff27" y="191.071418"/>
     <use style="stroke:#000000;" x="327.299081" xlink:href="#m6d2b5dff27" y="91.312281"/>
     <use style="stroke:#000000;" x="329.621031" xlink:href="#m6d2b5dff27" y="193.420425"/>
     <use style="stroke:#000000;" x="331.942982" xlink:href="#m6d2b5dff27" y="89.188214"/>
     <use style="stroke:#000000;" x="334.264933" xlink:href="#m6d2b5dff27" y="243.317585"/>
     <use style="stroke:#000000;" x="336.586883" xlink:href="#m6d2b5dff27" y="248.692324"/>
     <use style="stroke:#000000;" x="338.908834" xlink:href="#m6d2b5dff27" y="112.467245"/>
     <use style="stroke:#000000;" x="341.230785" xlink:href="#m6d2b5dff27" y="134.630612"/>
     <use style="stroke:#000000;" x="343.552735" xlink:href="#m6d2b5dff27" y="63.201716"/>
     <use style="stroke:#000000;" x="345.874686" xlink:href="#m6d2b5dff27" y="241.135769"/>
     <use style="stroke:#000000;" x="348.196637" xlink:href="#m6d2b5dff27" y="230.64896"/>
     <use style="stroke:#000000;" x="350.518587" xlink:href="#m6d2b5dff27" y="243.975644"/>
     <use style="stroke:#000000;" x="352.840538" xlink:href="#m6d2b5dff27" y="249.051995"/>
     <use style="stroke:#000000;" x="355.162489" xlink:href="#m6d2b5dff27" y="127.117179"/>
     <use style="stroke:#000000;" x="357.484439" xlink:href="#m6d2b5dff27" y="220.535416"/>
     <use style="stroke:#000000;" x="359.80639" xlink:href="#m6d2b5dff27" y="153.710981"/>
     <use style="stroke:#000000;" x="362.128341" xlink:href="#m6d2b5dff27" y="106.219472"/>
     <use style="stroke:#000000;" x="364.450291" xlink:href="#m6d2b5dff27" y="200.54682"/>
     <use style="stroke:#000000;" x="366.772242" xlink:href="#m6d2b5dff27" y="146.219723"/>
     <use style="stroke:#000000;" x="369.094193" xlink:href="#m6d2b5dff27" y="158.978979"/>
     <use style="stroke:#000000;" x="371.416143" xlink:href="#m6d2b5dff27" y="226.64049"/>
     <use style="stroke:#000000;" x="373.738094" xlink:href="#m6d2b5dff27" y="92.880574"/>
     <use style="stroke:#000000;" x="376.060045" xlink:href="#m6d2b5dff27" y="155.575865"/>
     <use style="stroke:#000000;" x="378.381995" xlink:href="#m6d2b5dff27" y="97.320082"/>
     <use style="stroke:#000000;" x="380.703946" xlink:href="#m6d2b5dff27" y="204.966409"/>
     <use style="stroke:#000000;" x="383.025897" xlink:href="#m6d2b5dff27" y="234.944245"/>
     <use style="stroke:#000000;" x="385.347847" xlink:href="#m6d2b5dff27" y="138.591049"/>
     <use style="stroke:#000000;" x="387.669798" xlink:href="#m6d2b5dff27" y="164.466813"/>
     <use style="stroke:#000000;" x="389.991749" xlink:href="#m6d2b5dff27" y="153.264043"/>
     <use style="stroke:#000000;" x="392.313699" xlink:href="#m6d2b5dff27" y="131.627097"/>
     <use style="stroke:#000000;" x="394.63565" xlink:href="#m6d2b5dff27" y="209.339673"/>
     <use style="stroke:#000000;" x="396.957601" xlink:href="#m6d2b5dff27" y="85.767251"/>
     <use style="stroke:#000000;" x="399.279551" xlink:href="#m6d2b5dff27" y="107.512176"/>
     <use style="stroke:#000000;" x="401.601502" xlink:href="#m6d2b5dff27" y="124.422945"/>
     <use style="stroke:#000000;" x="403.923452" xlink:href="#m6d2b5dff27" y="110.878851"/>
     <use style="stroke:#000000;" x="406.245403" xlink:href="#m6d2b5dff27" y="209.469635"/>
     <use style="stroke:#000000;" x="408.567354" xlink:href="#m6d2b5dff27" y="134.727012"/>
     <use style="stroke:#000000;" x="410.889304" xlink:href="#m6d2b5dff27" y="114.131606"/>
     <use style="stroke:#000000;" x="413.211255" xlink:href="#m6d2b5dff27" y="224.299556"/>
     <use style="stroke:#000000;" x="415.533206" xlink:href="#m6d2b5dff27" y="92.645975"/>
     <use style="stroke:#000000;" x="417.855156" xlink:href="#m6d2b5dff27" y="205.250412"/>
     <use style="stroke:#000000;" x="420.177107" xlink:href="#m6d2b5dff27" y="205.185963"/>
     <use style="stroke:#000000;" x="422.499058" xlink:href="#m6d2b5dff27" y="196.823689"/>
     <use style="stroke:#000000;" x="424.821008" xlink:href="#m6d2b5dff27" y="141.694182"/>
     <use style="stroke:#000000;" x="427.142959" xlink:href="#m6d2b5dff27" y="157.232598"/>
     <use style="stroke:#000000;" x="429.46491" xlink:href="#m6d2b5dff27" y="155.638295"/>
     <use style="stroke:#000000;" x="431.78686" xlink:href="#m6d2b5dff27" y="150.971203"/>
     <use style="stroke:#000000;" x="434.108811" xlink:href="#m6d2b5dff27" y="151.758598"/>
     <use style="stroke:#000000;" x="436.430762" xlink:href="#m6d2b5dff27" y="133.101078"/>
     <use style="stroke:#000000;" x="438.752712" xlink:href="#m6d2b5dff27" y="186.593708"/>
     <use style="stroke:#000000;" x="441.074663" xlink:href="#m6d2b5dff27" y="120.607474"/>
     <use style="stroke:#000000;" x="443.396614" xlink:href="#m6d2b5dff27" y="129.107009"/>
     <use style="stroke:#000000;" x="445.718564" xlink:href="#m6d2b5dff27" y="240.295456"/>
     <use style="stroke:#000000;" x="448.040515" xlink:href="#m6d2b5dff27" y="238.41688"/>
     <use style="stroke:#000000;" x="450.362466" xlink:href="#m6d2b5dff27" y="54.397544"/>
     <use style="stroke:#000000;" x="452.684416" xlink:href="#m6d2b5dff27" y="207.089761"/>
     <use style="stroke:#000000;" x="455.006367" xlink:href="#m6d2b5dff27" y="96.429689"/>
     <use style="stroke:#000000;" x="457.328318" xlink:href="#m6d2b5dff27" y="154.66553"/>
     <use style="stroke:#000000;" x="459.650268" xlink:href="#m6d2b5dff27" y="228.111481"/>
     <use style="stroke:#000000;" x="461.972219" xlink:href="#m6d2b5dff27" y="150.398989"/>
     <use style="stroke:#000000;" x="464.29417" xlink:href="#m6d2b5dff27" y="156.751644"/>
     <use style="stroke:#000000;" x="466.61612" xlink:href="#m6d2b5dff27" y="149.539474"/>
     <use style="stroke:#000000;" x="468.938071" xlink:href="#m6d2b5dff27" y="98.375717"/>
     <use style="stroke:#000000;" x="471.260022" xlink:href="#m6d2b5dff27" y="212.726203"/>
     <use style="stroke:#000000;" x="473.581972" xlink:href="#m6d2b5dff27" y="223.868752"/>
     <use style="stroke:#000000;" x="475.903923" xlink:href="#m6d2b5dff27" y="211.594"/>
     <use style="stroke:#000000;" x="478.225874" xlink:href="#m6d2b5dff27" y="238.069966"/>
     <use style="stroke:#000000;" x="480.547824" xlink:href="#m6d2b5dff27" y="103.825351"/>
     <use style="stroke:#000000;" x="482.869775" xlink:href="#m6d2b5dff27" y="115.652344"/>
     <use style="stroke:#000000;" x="485.191726" xlink:href="#m6d2b5dff27" y="235.736698"/>
     <use style="stroke:#000000;" x="487.513676" xlink:href="#m6d2b5dff27" y="107.746085"/>
     <use style="stroke:#000000;" x="489.835627" xlink:href="#m6d2b5dff27" y="142.760068"/>
     <use style="stroke:#000000;" x="492.157578" xlink:href="#m6d2b5dff27" y="154.309438"/>
     <use style="stroke:#000000;" x="494.479528" xlink:href="#m6d2b5dff27" y="187.717249"/>
     <use style="stroke:#000000;" x="496.801479" xlink:href="#m6d2b5dff27" y="115.333148"/>
     <use style="stroke:#000000;" x="499.12343" xlink:href="#m6d2b5dff27" y="171.872633"/>
     <use style="stroke:#000000;" x="501.44538" xlink:href="#m6d2b5dff27" y="227.172623"/>
     <use style="stroke:#000000;" x="503.767331" xlink:href="#m6d2b5dff27" y="117.191231"/>
     <use style="stroke:#000000;" x="506.089282" xlink:href="#m6d2b5dff27" y="131.320775"/>
     <use style="stroke:#000000;" x="508.411232" xlink:href="#m6d2b5dff27" y="81.010914"/>
     <use style="stroke:#000000;" x="510.733183" xlink:href="#m6d2b5dff27" y="137.418517"/>
     <use style="stroke:#000000;" x="513.055134" xlink:href="#m6d2b5dff27" y="66.777932"/>
     <use style="stroke:#000000;" x="515.377084" xlink:href="#m6d2b5dff27" y="199.232296"/>
     <use style="stroke:#000000;" x="517.699035" xlink:href="#m6d2b5dff27" y="115.597053"/>
     <use style="stroke:#000000;" x="520.020986" xlink:href="#m6d2b5dff27" y="107.514188"/>
     <use style="stroke:#000000;" x="522.342936" xlink:href="#m6d2b5dff27" y="111.318814"/>
     <use style="stroke:#000000;" x="524.664887" xlink:href="#m6d2b5dff27" y="123.699989"/>
     <use style="stroke:#000000;" x="526.986838" xlink:href="#m6d2b5dff27" y="87.944058"/>
     <use style="stroke:#000000;" x="529.308788" xlink:href="#m6d2b5dff27" y="249.333715"/>
     <use style="stroke:#000000;" x="531.630739" xlink:href="#m6d2b5dff27" y="237.740701"/>
     <use style="stroke:#000000;" x="533.95269" xlink:href="#m6d2b5dff27" y="204.671648"/>
     <use style="stroke:#000000;" x="536.27464" xlink:href="#m6d2b5dff27" y="121.537055"/>
     <use style="stroke:#000000;" x="538.596591" xlink:href="#m6d2b5dff27" y="234.553439"/>
    </g>
   </g>
   <g id="patch_3">
    <path d="M 53.425 260.6 
L 53.425 30.8 
" style="fill:none;stroke:#000000;stroke-linecap:square;stroke-linejoin:miter;stroke-width:0.8;"/>
   </g>
   <g id="patch_4">
    <path d="M 561.7 260.6 
L 561.7 30.8 
" style="fill:none;stroke:#000000;stroke-linecap:square;stroke-linejoin:miter;stroke-width:0.8;"/>
   </g>
   <g id="patch_5">
    <path d="M 53.425 260.6 
L 561.7 260.6 
" style="fill:none;stroke:#000000;stroke-linecap:square;stroke-linejoin:miter;stroke-width:0.8;"/>
   </g>
   <g id="patch_6">
    <path d="M 53.425 30.8 
L 561.7 30.8 
" style="fill:none;stroke:#000000;stroke-linecap:square;stroke-linejoin:miter;stroke-width:0.8;"/>
   </g>
   <g id="text_14">
    <!-- thinned trace of μ -->
    <defs>
     <path d="M 18.3125 70.21875 
L 18.3125 54.6875 
L 36.8125 54.6875 
L 36.8125 47.703125 
L 18.3125 47.703125 
L 18.3125 18.015625 
Q 18.3125 11.328125 20.140625 9.421875 
Q 21.96875 7.515625 27.59375 7.515625 
L 36.8125 7.515625 
L 36.8125 0 
L 27.59375 0 
Q 17.1875 0 13.234375 3.875 
Q 9.28125 7.765625 9.28125 18.015625 
L 9.28125 47.703125 
L 2.6875 47.703125 
L 2.6875 54.6875 
L 9.28125 54.6875 
L 9.28125 70.21875 
z
" id="DejaVuSans-116"/>
     <path d="M 54.890625 33.015625 
L 54.890625 0 
L 45.90625 0 
L 45.90625 32.71875 
Q 45.90625 40.484375 42.875 44.328125 
Q 39.84375 48.1875 33.796875 48.1875 
Q 26.515625 48.1875 22.3125 43.546875 
Q 18.109375 38.921875 18.109375 30.90625 
L 18.109375 0 
L 9.078125 0 
L 9.078125 75.984375 
L 18.109375 75.984375 
L 18.109375 46.1875 
Q 21.34375 51.125 25.703125 53.5625 
Q 30.078125 56 35.796875 56 
Q 45.21875 56 50.046875 50.171875 
Q 54.890625 44.34375 54.890625 33.015625 
z
" id="DejaVuSans-104"/>
     <path d="M 9.421875 54.6875 
L 18.40625 54.6875 
L 18.40625 0 
L 9.421875 0 
z
M 9.421875 75.984375 
L 18.40625 75.984375 
L 18.40625 64.59375 
L 9.421875 64.59375 
z
" id="DejaVuSans-105"/>
     <path d="M 54.890625 33.015625 
L 54.890625 0 
L 45.90625 0 
L 45.90625 32.71875 
Q 45.90625 40.484375 42.875 44.328125 
Q 39.84375 48.1875 33.796875 48.1875 
Q 26.515625 48.1875 22.3125 43.546875 
Q 18.109375 38.921875 18.109375 30.90625 
L 18.109375 0 
L 9.078125 0 
L 9.078125 54.6875 
L 18.109375 54.6875 
L 18.109375 46.1875 
Q 21.34375 51.125 25.703125 53.5625 
Q 30.078125 56 35.796875 56 
Q 45.21875 56 50.046875 50.171875 
Q 54.890625 44.34375 54.890625 33.015625 
z
" id="DejaVuSans-110"/>
     <path d="M 56.203125 29.59375 
L 56.203125 25.203125 
L 14.890625 25.203125 
Q 15.484375 15.921875 20.484375 11.0625 
Q 25.484375 6.203125 34.421875 6.203125 
Q 39.59375 6.203125 44.453125 7.46875 
Q 49.3125 8.734375 54.109375 11.28125 
L 54.109375 2.78125 
Q 49.265625 0.734375 44.1875 -0.34375 
Q 39.109375 -1.421875 33.890625 -1.421875 
Q 20.796875 -1.421875 13.15625 6.1875 
Q 5.515625 13.8125 5.515625 26.8125 
Q 5.515625 40.234375 12.765625 48.109375 
Q 20.015625 56 32.328125 56 
Q 43.359375 56 49.78125 48.890625 
Q 56.203125 41.796875 56.203125 29.59375 
z
M 47.21875 32.234375 
Q 47.125 39.59375 43.09375 43.984375 
Q 39.0625 48.390625 32.421875 48.390625 
Q 24.90625 48.390625 20.390625 44.140625 
Q 15.875 39.890625 15.1875 32.171875 
z
" id="DejaVuSans-101"/>
     <path d="M 45.40625 46.390625 
L 45.40625 75.984375 
L 54.390625 75.984375 
L 54.390625 0 
L 45.40625 0 
L 45.40625 8.203125 
Q 42.578125 3.328125 38.25 0.953125 
Q 33.9375 -1.421875 27.875 -1.421875 
Q 17.96875 -1.421875 11.734375 6.484375 
Q 5.515625 14.40625 5.515625 27.296875 
Q 5.515625 40.1875 11.734375 48.09375 
Q 17.96875 56 27.875 56 
Q 33.9375 56 38.25 53.625 
Q 42.578125 51.265625 45.40625 46.390625 
z
M 14.796875 27.296875 
Q 14.796875 17.390625 18.875 11.75 
Q 22.953125 6.109375 30.078125 6.109375 
Q 37.203125 6.109375 41.296875 11.75 
Q 45.40625 17.390625 45.40625 27.296875 
Q 45.40625 37.203125 41.296875 42.84375 
Q 37.203125 48.484375 30.078125 48.484375 
Q 22.953125 48.484375 18.875 42.84375 
Q 14.796875 37.203125 14.796875 27.296875 
z
" id="DejaVuSans-100"/>
     <path id="DejaVuSans-32"/>
     <path d="M 41.109375 46.296875 
Q 39.59375 47.171875 37.8125 47.578125 
Q 36.03125 48 33.890625 48 
Q 26.265625 48 22.1875 43.046875 
Q 18.109375 38.09375 18.109375 28.8125 
L 18.109375 0 
L 9.078125 0 
L 9.078125 54.6875 
L 18.109375 54.6875 
L 18.109375 46.1875 
Q 20.953125 51.171875 25.484375 53.578125 
Q 30.03125 56 36.53125 56 
Q 37.453125 56 38.578125 55.875 
Q 39.703125 55.765625 41.0625 55.515625 
z
" id="DejaVuSans-114"/>
     <path d="M 34.28125 27.484375 
Q 23.390625 27.484375 19.1875 25 
Q 14.984375 22.515625 14.984375 16.5 
Q 14.984375 11.71875 18.140625 8.90625 
Q 21.296875 6.109375 26.703125 6.109375 
Q 34.1875 6.109375 38.703125 11.40625 
Q 43.21875 16.703125 43.21875 25.484375 
L 43.21875 27.484375 
z
M 52.203125 31.203125 
L 52.203125 0 
L 43.21875 0 
L 43.21875 8.296875 
Q 40.140625 3.328125 35.546875 0.953125 
Q 30.953125 -1.421875 24.3125 -1.421875 
Q 15.921875 -1.421875 10.953125 3.296875 
Q 6 8.015625 6 15.921875 
Q 6 25.140625 12.171875 29.828125 
Q 18.359375 34.515625 30.609375 34.515625 
L 43.21875 34.515625 
L 43.21875 35.40625 
Q 43.21875 41.609375 39.140625 45 
Q 35.0625 48.390625 27.6875 48.390625 
Q 23 48.390625 18.546875 47.265625 
Q 14.109375 46.140625 10.015625 43.890625 
L 10.015625 52.203125 
Q 14.9375 54.109375 19.578125 55.046875 
Q 24.21875 56 28.609375 56 
Q 40.484375 56 46.34375 49.84375 
Q 52.203125 43.703125 52.203125 31.203125 
z
" id="DejaVuSans-97"/>
     <path d="M 48.78125 52.59375 
L 48.78125 44.1875 
Q 44.96875 46.296875 41.140625 47.34375 
Q 37.3125 48.390625 33.40625 48.390625 
Q 24.65625 48.390625 19.8125 42.84375 
Q 14.984375 37.3125 14.984375 27.296875 
Q 14.984375 17.28125 19.8125 11.734375 
Q 24.65625 6.203125 33.40625 6.203125 
Q 37.3125 6.203125 41.140625 7.25 
Q 44.96875 8.296875 48.78125 10.40625 
L 48.78125 2.09375 
Q 45.015625 0.34375 40.984375 -0.53125 
Q 36.96875 -1.421875 32.421875 -1.421875 
Q 20.0625 -1.421875 12.78125 6.34375 
Q 5.515625 14.109375 5.515625 27.296875 
Q 5.515625 40.671875 12.859375 48.328125 
Q 20.21875 56 33.015625 56 
Q 37.15625 56 41.109375 55.140625 
Q 45.0625 54.296875 48.78125 52.59375 
z
" id="DejaVuSans-99"/>
     <path d="M 30.609375 48.390625 
Q 23.390625 48.390625 19.1875 42.75 
Q 14.984375 37.109375 14.984375 27.296875 
Q 14.984375 17.484375 19.15625 11.84375 
Q 23.34375 6.203125 30.609375 6.203125 
Q 37.796875 6.203125 41.984375 11.859375 
Q 46.1875 17.53125 46.1875 27.296875 
Q 46.1875 37.015625 41.984375 42.703125 
Q 37.796875 48.390625 30.609375 48.390625 
z
M 30.609375 56 
Q 42.328125 56 49.015625 48.375 
Q 55.71875 40.765625 55.71875 27.296875 
Q 55.71875 13.875 49.015625 6.21875 
Q 42.328125 -1.421875 30.609375 -1.421875 
Q 18.84375 -1.421875 12.171875 6.21875 
Q 5.515625 13.875 5.515625 27.296875 
Q 5.515625 40.765625 12.171875 48.375 
Q 18.84375 56 30.609375 56 
z
" id="DejaVuSans-111"/>
     <path d="M 37.109375 75.984375 
L 37.109375 68.5 
L 28.515625 68.5 
Q 23.6875 68.5 21.796875 66.546875 
Q 19.921875 64.59375 19.921875 59.515625 
L 19.921875 54.6875 
L 34.71875 54.6875 
L 34.71875 47.703125 
L 19.921875 47.703125 
L 19.921875 0 
L 10.890625 0 
L 10.890625 47.703125 
L 2.296875 47.703125 
L 2.296875 54.6875 
L 10.890625 54.6875 
L 10.890625 58.5 
Q 10.890625 67.625 15.140625 71.796875 
Q 19.390625 75.984375 28.609375 75.984375 
z
" id="DejaVuSans-102"/>
     <path d="M 8.5 -20.796875 
L 8.5 54.6875 
L 17.484375 54.6875 
L 17.484375 20.703125 
Q 17.484375 13.625 20.84375 10 
Q 24.21875 6.390625 30.8125 6.390625 
Q 38.03125 6.390625 41.671875 10.484375 
Q 45.3125 14.59375 45.3125 22.796875 
L 45.3125 54.6875 
L 54.296875 54.6875 
L 54.296875 12.59375 
Q 54.296875 9.671875 55.140625 8.28125 
Q 56 6.890625 57.8125 6.890625 
Q 58.25 6.890625 59.03125 7.15625 
Q 59.8125 7.421875 61.1875 8.015625 
L 61.1875 0.78125 
Q 59.1875 -0.34375 57.390625 -0.875 
Q 55.609375 -1.421875 53.90625 -1.421875 
Q 50.53125 -1.421875 48.53125 0.484375 
Q 46.53125 2.390625 45.796875 6.296875 
Q 43.359375 2.4375 39.8125 0.5 
Q 36.28125 -1.421875 31.5 -1.421875 
Q 26.515625 -1.421875 23.015625 0.484375 
Q 19.53125 2.390625 17.484375 6.203125 
L 17.484375 -20.796875 
z
" id="DejaVuSans-956"/>
    </defs>
    <g transform="translate(226.959063 24.8)scale(0.18 -0.18)">
     <use xlink:href="#DejaVuSans-116"/>
     <use x="39.208984" xlink:href="#DejaVuSans-104"/>
     <use x="102.587891" xlink:href="#DejaVuSans-105"/>
     <use x="130.371094" xlink:href="#DejaVuSans-110"/>
     <use x="193.75" xlink:href="#DejaVuSans-110"/>
     <use x="257.128906" xlink:href="#DejaVuSans-101"/>
     <use x="318.652344" xlink:href="#DejaVuSans-100"/>
     <use x="382.128906" xlink:href="#DejaVuSans-32"/>
     <use x="413.916016" xlink:href="#DejaVuSans-116"/>
     <use x="453.125" xlink:href="#DejaVuSans-114"/>
     <use x="494.238281" xlink:href="#DejaVuSans-97"/>
     <use x="555.517578" xlink:href="#DejaVuSans-99"/>
     <use x="610.498047" xlink:href="#DejaVuSans-101"/>
     <use x="672.021484" xlink:href="#DejaVuSans-32"/>
     <use x="703.808594" xlink:href="#DejaVuSans-111"/>
     <use x="764.990234" xlink:href="#DejaVuSans-102"/>
     <use x="800.195312" xlink:href="#DejaVuSans-32"/>
     <use x="831.982422" xlink:href="#DejaVuSans-956"/>
    </g>
   </g>
  </g>
  <g id="axes_2">
   <g id="patch_7">
    <path d="M 53.425 543.2 
L 561.7 543.2 
L 561.7 313.4 
L 53.425 313.4 
z
" style="fill:#ffffff;"/>
   </g>
   <g id="line2d_52">
    <path clip-path="url(#p117ef1a523)" d="M 76.528409 383.400477 
L 78.85036 383.473921 
L 81.17231 383.894988 
L 85.816212 385.681215 
L 88.138162 386.855233 
L 92.782064 389.956643 
L 95.104014 391.719194 
L 104.391817 399.331938 
L 109.035718 402.846479 
L 111.357669 404.289504 
L 113.67962 405.559568 
L 118.323521 407.468193 
L 120.645472 408.030786 
L 122.967422 408.434114 
L 127.611324 408.374666 
L 129.933274 407.959471 
L 132.255225 407.229304 
L 134.577176 406.266069 
L 136.899126 404.837264 
L 139.221077 403.022652 
L 141.543028 400.863527 
L 143.864978 398.202793 
L 146.186929 395.191885 
L 148.50888 391.85796 
L 153.152781 384.320213 
L 160.118633 372.58911 
L 162.440584 369.102056 
L 164.762534 366.116904 
L 167.084485 363.826956 
L 169.406436 362.218691 
L 171.728386 361.565847 
L 174.050337 361.838358 
L 176.372288 363.183325 
L 178.694238 365.547763 
L 181.016189 368.909785 
L 183.33814 373.152964 
L 185.66009 378.280442 
L 187.982041 384.104911 
L 190.303992 390.679286 
L 194.947893 405.083309 
L 199.591794 420.632927 
L 204.235696 436.36712 
L 208.879597 451.290591 
L 211.201548 458.297453 
L 213.523498 464.939155 
L 215.845449 471.147389 
L 218.167399 476.847854 
L 220.48935 481.89245 
L 222.811301 486.178425 
L 225.133251 489.858568 
L 227.455202 492.758317 
L 229.777153 494.944846 
L 232.099103 496.25856 
L 234.421054 496.902017 
L 236.743005 496.836701 
L 239.064955 495.972461 
L 241.386906 494.282156 
L 243.708857 491.644966 
L 246.030807 488.436365 
L 248.352758 484.509802 
L 250.674709 479.81186 
L 252.996659 474.501393 
L 255.31861 468.598678 
L 257.640561 461.904509 
L 259.962511 454.749825 
L 262.284462 447.014626 
L 264.606413 438.826233 
L 269.250314 421.158139 
L 273.894215 402.821186 
L 278.538117 384.237863 
L 283.182018 366.743807 
L 285.503969 358.881771 
L 287.825919 351.644308 
L 290.14787 345.176252 
L 292.469821 339.362906 
L 294.791771 334.623177 
L 297.113722 330.786094 
L 299.435673 327.825977 
L 301.757623 325.598768 
L 304.079574 324.136599 
L 306.401525 323.385669 
L 308.723475 323.196038 
L 311.045426 323.476054 
L 313.367377 324.181983 
L 315.689327 325.116823 
L 318.011278 326.183548 
L 327.299081 331.332389 
L 329.621031 332.749085 
L 336.586883 337.616341 
L 338.908834 339.432288 
L 343.552735 343.567182 
L 352.840538 351.87941 
L 357.484439 355.668331 
L 359.80639 357.240899 
L 362.128341 358.502863 
L 364.450291 359.894811 
L 366.772242 361.063477 
L 369.094193 362.086734 
L 373.738094 364.66076 
L 376.060045 366.196516 
L 378.381995 368.04345 
L 380.703946 370.177631 
L 383.025897 372.895703 
L 385.347847 375.867672 
L 387.669798 379.302985 
L 392.313699 387.39369 
L 394.63565 391.829229 
L 403.923452 410.654429 
L 406.245403 415.332213 
L 410.889304 423.709114 
L 415.533206 431.300421 
L 420.177107 438.08683 
L 429.46491 450.955741 
L 434.108811 458.034388 
L 438.752712 465.731 
L 445.718564 477.80392 
L 452.684416 489.951054 
L 457.328318 496.814977 
L 459.650268 499.966193 
L 461.972219 502.83187 
L 464.29417 505.361533 
L 466.61612 507.555031 
L 468.938071 509.504507 
L 471.260022 511.228167 
L 473.581972 512.711285 
L 475.903923 514.029145 
L 478.225874 515.066566 
L 482.869775 516.79272 
L 487.513676 517.970512 
L 492.157578 518.741859 
L 494.479528 519.037277 
L 496.801479 519.116804 
L 499.12343 519.079959 
L 501.44538 518.899846 
L 506.089282 518.180752 
L 508.411232 517.714263 
L 510.733183 517.104946 
L 526.986838 512.077117 
L 529.308788 511.539756 
L 533.95269 510.748551 
L 536.27464 510.513762 
L 538.596591 510.405043 
L 538.596591 510.405043 
" style="fill:none;stroke:#ffa500;stroke-linecap:square;stroke-width:2;"/>
   </g>
   <g id="matplotlib.axis_3">
    <g id="xtick_36">
     <g id="line2d_53">
      <g>
       <use style="stroke:#000000;stroke-width:0.8;" x="118.146557" xlink:href="#maf61babc4a" y="543.2"/>
      </g>
     </g>
     <g id="text_15">
      <!-- 2 -->
      <g transform="translate(113.056557 562.3575)scale(0.16 -0.16)">
       <use xlink:href="#DejaVuSans-50"/>
      </g>
     </g>
    </g>
    <g id="xtick_37">
     <g id="line2d_54">
      <g>
       <use style="stroke:#000000;stroke-width:0.8;" x="184.782133" xlink:href="#maf61babc4a" y="543.2"/>
      </g>
     </g>
     <g id="text_16">
      <!-- 3 -->
      <defs>
       <path d="M 40.578125 39.3125 
Q 47.65625 37.796875 51.625 33 
Q 55.609375 28.21875 55.609375 21.1875 
Q 55.609375 10.40625 48.1875 4.484375 
Q 40.765625 -1.421875 27.09375 -1.421875 
Q 22.515625 -1.421875 17.65625 -0.515625 
Q 12.796875 0.390625 7.625 2.203125 
L 7.625 11.71875 
Q 11.71875 9.328125 16.59375 8.109375 
Q 21.484375 6.890625 26.8125 6.890625 
Q 36.078125 6.890625 40.9375 10.546875 
Q 45.796875 14.203125 45.796875 21.1875 
Q 45.796875 27.640625 41.28125 31.265625 
Q 36.765625 34.90625 28.71875 34.90625 
L 20.21875 34.90625 
L 20.21875 43.015625 
L 29.109375 43.015625 
Q 36.375 43.015625 40.234375 45.921875 
Q 44.09375 48.828125 44.09375 54.296875 
Q 44.09375 59.90625 40.109375 62.90625 
Q 36.140625 65.921875 28.71875 65.921875 
Q 24.65625 65.921875 20.015625 65.03125 
Q 15.375 64.15625 9.8125 62.3125 
L 9.8125 71.09375 
Q 15.4375 72.65625 20.34375 73.4375 
Q 25.25 74.21875 29.59375 74.21875 
Q 40.828125 74.21875 47.359375 69.109375 
Q 53.90625 64.015625 53.90625 55.328125 
Q 53.90625 49.265625 50.4375 45.09375 
Q 46.96875 40.921875 40.578125 39.3125 
z
" id="DejaVuSans-51"/>
      </defs>
      <g transform="translate(179.692133 562.3575)scale(0.16 -0.16)">
       <use xlink:href="#DejaVuSans-51"/>
      </g>
     </g>
    </g>
    <g id="xtick_38">
     <g id="line2d_55">
      <g>
       <use style="stroke:#000000;stroke-width:0.8;" x="251.41771" xlink:href="#maf61babc4a" y="543.2"/>
      </g>
     </g>
     <g id="text_17">
      <!-- 4 -->
      <g transform="translate(246.32771 562.3575)scale(0.16 -0.16)">
       <use xlink:href="#DejaVuSans-52"/>
      </g>
     </g>
    </g>
    <g id="xtick_39">
     <g id="line2d_56">
      <g>
       <use style="stroke:#000000;stroke-width:0.8;" x="318.053286" xlink:href="#maf61babc4a" y="543.2"/>
      </g>
     </g>
     <g id="text_18">
      <!-- 5 -->
      <g transform="translate(312.963286 562.3575)scale(0.16 -0.16)">
       <use xlink:href="#DejaVuSans-53"/>
      </g>
     </g>
    </g>
    <g id="xtick_40">
     <g id="line2d_57">
      <g>
       <use style="stroke:#000000;stroke-width:0.8;" x="384.688863" xlink:href="#maf61babc4a" y="543.2"/>
      </g>
     </g>
     <g id="text_19">
      <!-- 6 -->
      <g transform="translate(379.598863 562.3575)scale(0.16 -0.16)">
       <use xlink:href="#DejaVuSans-54"/>
      </g>
     </g>
    </g>
    <g id="xtick_41">
     <g id="line2d_58">
      <g>
       <use style="stroke:#000000;stroke-width:0.8;" x="451.324439" xlink:href="#maf61babc4a" y="543.2"/>
      </g>
     </g>
     <g id="text_20">
      <!-- 7 -->
      <g transform="translate(446.234439 562.3575)scale(0.16 -0.16)">
       <use xlink:href="#DejaVuSans-55"/>
      </g>
     </g>
    </g>
    <g id="xtick_42">
     <g id="line2d_59">
      <g>
       <use style="stroke:#000000;stroke-width:0.8;" x="517.960015" xlink:href="#maf61babc4a" y="543.2"/>
      </g>
     </g>
     <g id="text_21">
      <!-- 8 -->
      <g transform="translate(512.870015 562.3575)scale(0.16 -0.16)">
       <use xlink:href="#DejaVuSans-56"/>
      </g>
     </g>
    </g>
    <g id="xtick_43">
     <g id="line2d_60">
      <g>
       <use style="stroke:#000000;stroke-width:0.6;" x="64.838096" xlink:href="#md85cb6b40e" y="543.2"/>
      </g>
     </g>
    </g>
    <g id="xtick_44">
     <g id="line2d_61">
      <g>
       <use style="stroke:#000000;stroke-width:0.6;" x="78.165211" xlink:href="#md85cb6b40e" y="543.2"/>
      </g>
     </g>
    </g>
    <g id="xtick_45">
     <g id="line2d_62">
      <g>
       <use style="stroke:#000000;stroke-width:0.6;" x="91.492326" xlink:href="#md85cb6b40e" y="543.2"/>
      </g>
     </g>
    </g>
    <g id="xtick_46">
     <g id="line2d_63">
      <g>
       <use style="stroke:#000000;stroke-width:0.6;" x="104.819442" xlink:href="#md85cb6b40e" y="543.2"/>
      </g>
     </g>
    </g>
    <g id="xtick_47">
     <g id="line2d_64">
      <g>
       <use style="stroke:#000000;stroke-width:0.6;" x="131.473672" xlink:href="#md85cb6b40e" y="543.2"/>
      </g>
     </g>
    </g>
    <g id="xtick_48">
     <g id="line2d_65">
      <g>
       <use style="stroke:#000000;stroke-width:0.6;" x="144.800788" xlink:href="#md85cb6b40e" y="543.2"/>
      </g>
     </g>
    </g>
    <g id="xtick_49">
     <g id="line2d_66">
      <g>
       <use style="stroke:#000000;stroke-width:0.6;" x="158.127903" xlink:href="#md85cb6b40e" y="543.2"/>
      </g>
     </g>
    </g>
    <g id="xtick_50">
     <g id="line2d_67">
      <g>
       <use style="stroke:#000000;stroke-width:0.6;" x="171.455018" xlink:href="#md85cb6b40e" y="543.2"/>
      </g>
     </g>
    </g>
    <g id="xtick_51">
     <g id="line2d_68">
      <g>
       <use style="stroke:#000000;stroke-width:0.6;" x="198.109249" xlink:href="#md85cb6b40e" y="543.2"/>
      </g>
     </g>
    </g>
    <g id="xtick_52">
     <g id="line2d_69">
      <g>
       <use style="stroke:#000000;stroke-width:0.6;" x="211.436364" xlink:href="#md85cb6b40e" y="543.2"/>
      </g>
     </g>
    </g>
    <g id="xtick_53">
     <g id="line2d_70">
      <g>
       <use style="stroke:#000000;stroke-width:0.6;" x="224.763479" xlink:href="#md85cb6b40e" y="543.2"/>
      </g>
     </g>
    </g>
    <g id="xtick_54">
     <g id="line2d_71">
      <g>
       <use style="stroke:#000000;stroke-width:0.6;" x="238.090595" xlink:href="#md85cb6b40e" y="543.2"/>
      </g>
     </g>
    </g>
    <g id="xtick_55">
     <g id="line2d_72">
      <g>
       <use style="stroke:#000000;stroke-width:0.6;" x="264.744825" xlink:href="#md85cb6b40e" y="543.2"/>
      </g>
     </g>
    </g>
    <g id="xtick_56">
     <g id="line2d_73">
      <g>
       <use style="stroke:#000000;stroke-width:0.6;" x="278.07194" xlink:href="#md85cb6b40e" y="543.2"/>
      </g>
     </g>
    </g>
    <g id="xtick_57">
     <g id="line2d_74">
      <g>
       <use style="stroke:#000000;stroke-width:0.6;" x="291.399056" xlink:href="#md85cb6b40e" y="543.2"/>
      </g>
     </g>
    </g>
    <g id="xtick_58">
     <g id="line2d_75">
      <g>
       <use style="stroke:#000000;stroke-width:0.6;" x="304.726171" xlink:href="#md85cb6b40e" y="543.2"/>
      </g>
     </g>
    </g>
    <g id="xtick_59">
     <g id="line2d_76">
      <g>
       <use style="stroke:#000000;stroke-width:0.6;" x="331.380402" xlink:href="#md85cb6b40e" y="543.2"/>
      </g>
     </g>
    </g>
    <g id="xtick_60">
     <g id="line2d_77">
      <g>
       <use style="stroke:#000000;stroke-width:0.6;" x="344.707517" xlink:href="#md85cb6b40e" y="543.2"/>
      </g>
     </g>
    </g>
    <g id="xtick_61">
     <g id="line2d_78">
      <g>
       <use style="stroke:#000000;stroke-width:0.6;" x="358.034632" xlink:href="#md85cb6b40e" y="543.2"/>
      </g>
     </g>
    </g>
    <g id="xtick_62">
     <g id="line2d_79">
      <g>
       <use style="stroke:#000000;stroke-width:0.6;" x="371.361747" xlink:href="#md85cb6b40e" y="543.2"/>
      </g>
     </g>
    </g>
    <g id="xtick_63">
     <g id="line2d_80">
      <g>
       <use style="stroke:#000000;stroke-width:0.6;" x="398.015978" xlink:href="#md85cb6b40e" y="543.2"/>
      </g>
     </g>
    </g>
    <g id="xtick_64">
     <g id="line2d_81">
      <g>
       <use style="stroke:#000000;stroke-width:0.6;" x="411.343093" xlink:href="#md85cb6b40e" y="543.2"/>
      </g>
     </g>
    </g>
    <g id="xtick_65">
     <g id="line2d_82">
      <g>
       <use style="stroke:#000000;stroke-width:0.6;" x="424.670208" xlink:href="#md85cb6b40e" y="543.2"/>
      </g>
     </g>
    </g>
    <g id="xtick_66">
     <g id="line2d_83">
      <g>
       <use style="stroke:#000000;stroke-width:0.6;" x="437.997324" xlink:href="#md85cb6b40e" y="543.2"/>
      </g>
     </g>
    </g>
    <g id="xtick_67">
     <g id="line2d_84">
      <g>
       <use style="stroke:#000000;stroke-width:0.6;" x="464.651554" xlink:href="#md85cb6b40e" y="543.2"/>
      </g>
     </g>
    </g>
    <g id="xtick_68">
     <g id="line2d_85">
      <g>
       <use style="stroke:#000000;stroke-width:0.6;" x="477.97867" xlink:href="#md85cb6b40e" y="543.2"/>
      </g>
     </g>
    </g>
    <g id="xtick_69">
     <g id="line2d_86">
      <g>
       <use style="stroke:#000000;stroke-width:0.6;" x="491.305785" xlink:href="#md85cb6b40e" y="543.2"/>
      </g>
     </g>
    </g>
    <g id="xtick_70">
     <g id="line2d_87">
      <g>
       <use style="stroke:#000000;stroke-width:0.6;" x="504.6329" xlink:href="#md85cb6b40e" y="543.2"/>
      </g>
     </g>
    </g>
    <g id="xtick_71">
     <g id="line2d_88">
      <g>
       <use style="stroke:#000000;stroke-width:0.6;" x="531.287131" xlink:href="#md85cb6b40e" y="543.2"/>
      </g>
     </g>
    </g>
    <g id="xtick_72">
     <g id="line2d_89">
      <g>
       <use style="stroke:#000000;stroke-width:0.6;" x="544.614246" xlink:href="#md85cb6b40e" y="543.2"/>
      </g>
     </g>
    </g>
    <g id="xtick_73">
     <g id="line2d_90">
      <g>
       <use style="stroke:#000000;stroke-width:0.6;" x="557.941361" xlink:href="#md85cb6b40e" y="543.2"/>
      </g>
     </g>
    </g>
   </g>
   <g id="matplotlib.axis_4">
    <g id="ytick_16">
     <g id="line2d_91">
      <g>
       <use style="stroke:#000000;stroke-width:0.8;" x="53.425" xlink:href="#m0a1587abcf" y="543.2"/>
      </g>
     </g>
     <g id="text_22">
      <!-- 0.00 -->
      <defs>
       <path d="M 10.6875 12.40625 
L 21 12.40625 
L 21 0 
L 10.6875 0 
z
" id="DejaVuSans-46"/>
      </defs>
      <g transform="translate(10.8 549.27875)scale(0.16 -0.16)">
       <use xlink:href="#DejaVuSans-48"/>
       <use x="63.623047" xlink:href="#DejaVuSans-46"/>
       <use x="95.410156" xlink:href="#DejaVuSans-48"/>
       <use x="159.033203" xlink:href="#DejaVuSans-48"/>
      </g>
     </g>
    </g>
    <g id="ytick_17">
     <g id="line2d_92">
      <g>
       <use style="stroke:#000000;stroke-width:0.8;" x="53.425" xlink:href="#m0a1587abcf" y="500.62645"/>
      </g>
     </g>
     <g id="text_23">
      <!-- 0.05 -->
      <g transform="translate(10.8 506.7052)scale(0.16 -0.16)">
       <use xlink:href="#DejaVuSans-48"/>
       <use x="63.623047" xlink:href="#DejaVuSans-46"/>
       <use x="95.410156" xlink:href="#DejaVuSans-48"/>
       <use x="159.033203" xlink:href="#DejaVuSans-53"/>
      </g>
     </g>
    </g>
    <g id="ytick_18">
     <g id="line2d_93">
      <g>
       <use style="stroke:#000000;stroke-width:0.8;" x="53.425" xlink:href="#m0a1587abcf" y="458.0529"/>
      </g>
     </g>
     <g id="text_24">
      <!-- 0.10 -->
      <g transform="translate(10.8 464.13165)scale(0.16 -0.16)">
       <use xlink:href="#DejaVuSans-48"/>
       <use x="63.623047" xlink:href="#DejaVuSans-46"/>
       <use x="95.410156" xlink:href="#DejaVuSans-49"/>
       <use x="159.033203" xlink:href="#DejaVuSans-48"/>
      </g>
     </g>
    </g>
    <g id="ytick_19">
     <g id="line2d_94">
      <g>
       <use style="stroke:#000000;stroke-width:0.8;" x="53.425" xlink:href="#m0a1587abcf" y="415.47935"/>
      </g>
     </g>
     <g id="text_25">
      <!-- 0.15 -->
      <g transform="translate(10.8 421.5581)scale(0.16 -0.16)">
       <use xlink:href="#DejaVuSans-48"/>
       <use x="63.623047" xlink:href="#DejaVuSans-46"/>
       <use x="95.410156" xlink:href="#DejaVuSans-49"/>
       <use x="159.033203" xlink:href="#DejaVuSans-53"/>
      </g>
     </g>
    </g>
    <g id="ytick_20">
     <g id="line2d_95">
      <g>
       <use style="stroke:#000000;stroke-width:0.8;" x="53.425" xlink:href="#m0a1587abcf" y="372.905801"/>
      </g>
     </g>
     <g id="text_26">
      <!-- 0.20 -->
      <g transform="translate(10.8 378.984551)scale(0.16 -0.16)">
       <use xlink:href="#DejaVuSans-48"/>
       <use x="63.623047" xlink:href="#DejaVuSans-46"/>
       <use x="95.410156" xlink:href="#DejaVuSans-50"/>
       <use x="159.033203" xlink:href="#DejaVuSans-48"/>
      </g>
     </g>
    </g>
    <g id="ytick_21">
     <g id="line2d_96">
      <g>
       <use style="stroke:#000000;stroke-width:0.8;" x="53.425" xlink:href="#m0a1587abcf" y="330.332251"/>
      </g>
     </g>
     <g id="text_27">
      <!-- 0.25 -->
      <g transform="translate(10.8 336.411001)scale(0.16 -0.16)">
       <use xlink:href="#DejaVuSans-48"/>
       <use x="63.623047" xlink:href="#DejaVuSans-46"/>
       <use x="95.410156" xlink:href="#DejaVuSans-50"/>
       <use x="159.033203" xlink:href="#DejaVuSans-53"/>
      </g>
     </g>
    </g>
    <g id="ytick_22">
     <g id="line2d_97">
      <g>
       <use style="stroke:#000000;stroke-width:0.6;" x="53.425" xlink:href="#mbd0f134bec" y="534.68529"/>
      </g>
     </g>
    </g>
    <g id="ytick_23">
     <g id="line2d_98">
      <g>
       <use style="stroke:#000000;stroke-width:0.6;" x="53.425" xlink:href="#mbd0f134bec" y="526.17058"/>
      </g>
     </g>
    </g>
    <g id="ytick_24">
     <g id="line2d_99">
      <g>
       <use style="stroke:#000000;stroke-width:0.6;" x="53.425" xlink:href="#mbd0f134bec" y="517.65587"/>
      </g>
     </g>
    </g>
    <g id="ytick_25">
     <g id="line2d_100">
      <g>
       <use style="stroke:#000000;stroke-width:0.6;" x="53.425" xlink:href="#mbd0f134bec" y="509.14116"/>
      </g>
     </g>
    </g>
    <g id="ytick_26">
     <g id="line2d_101">
      <g>
       <use style="stroke:#000000;stroke-width:0.6;" x="53.425" xlink:href="#mbd0f134bec" y="492.11174"/>
      </g>
     </g>
    </g>
    <g id="ytick_27">
     <g id="line2d_102">
      <g>
       <use style="stroke:#000000;stroke-width:0.6;" x="53.425" xlink:href="#mbd0f134bec" y="483.59703"/>
      </g>
     </g>
    </g>
    <g id="ytick_28">
     <g id="line2d_103">
      <g>
       <use style="stroke:#000000;stroke-width:0.6;" x="53.425" xlink:href="#mbd0f134bec" y="475.08232"/>
      </g>
     </g>
    </g>
    <g id="ytick_29">
     <g id="line2d_104">
      <g>
       <use style="stroke:#000000;stroke-width:0.6;" x="53.425" xlink:href="#mbd0f134bec" y="466.56761"/>
      </g>
     </g>
    </g>
    <g id="ytick_30">
     <g id="line2d_105">
      <g>
       <use style="stroke:#000000;stroke-width:0.6;" x="53.425" xlink:href="#mbd0f134bec" y="449.53819"/>
      </g>
     </g>
    </g>
    <g id="ytick_31">
     <g id="line2d_106">
      <g>
       <use style="stroke:#000000;stroke-width:0.6;" x="53.425" xlink:href="#mbd0f134bec" y="441.02348"/>
      </g>
     </g>
    </g>
    <g id="ytick_32">
     <g id="line2d_107">
      <g>
       <use style="stroke:#000000;stroke-width:0.6;" x="53.425" xlink:href="#mbd0f134bec" y="432.50877"/>
      </g>
     </g>
    </g>
    <g id="ytick_33">
     <g id="line2d_108">
      <g>
       <use style="stroke:#000000;stroke-width:0.6;" x="53.425" xlink:href="#mbd0f134bec" y="423.99406"/>
      </g>
     </g>
    </g>
    <g id="ytick_34">
     <g id="line2d_109">
      <g>
       <use style="stroke:#000000;stroke-width:0.6;" x="53.425" xlink:href="#mbd0f134bec" y="406.96464"/>
      </g>
     </g>
    </g>
    <g id="ytick_35">
     <g id="line2d_110">
      <g>
       <use style="stroke:#000000;stroke-width:0.6;" x="53.425" xlink:href="#mbd0f134bec" y="398.44993"/>
      </g>
     </g>
    </g>
    <g id="ytick_36">
     <g id="line2d_111">
      <g>
       <use style="stroke:#000000;stroke-width:0.6;" x="53.425" xlink:href="#mbd0f134bec" y="389.93522"/>
      </g>
     </g>
    </g>
    <g id="ytick_37">
     <g id="line2d_112">
      <g>
       <use style="stroke:#000000;stroke-width:0.6;" x="53.425" xlink:href="#mbd0f134bec" y="381.420511"/>
      </g>
     </g>
    </g>
    <g id="ytick_38">
     <g id="line2d_113">
      <g>
       <use style="stroke:#000000;stroke-width:0.6;" x="53.425" xlink:href="#mbd0f134bec" y="364.391091"/>
      </g>
     </g>
    </g>
    <g id="ytick_39">
     <g id="line2d_114">
      <g>
       <use style="stroke:#000000;stroke-width:0.6;" x="53.425" xlink:href="#mbd0f134bec" y="355.876381"/>
      </g>
     </g>
    </g>
    <g id="ytick_40">
     <g id="line2d_115">
      <g>
       <use style="stroke:#000000;stroke-width:0.6;" x="53.425" xlink:href="#mbd0f134bec" y="347.361671"/>
      </g>
     </g>
    </g>
    <g id="ytick_41">
     <g id="line2d_116">
      <g>
       <use style="stroke:#000000;stroke-width:0.6;" x="53.425" xlink:href="#mbd0f134bec" y="338.846961"/>
      </g>
     </g>
    </g>
    <g id="ytick_42">
     <g id="line2d_117">
      <g>
       <use style="stroke:#000000;stroke-width:0.6;" x="53.425" xlink:href="#mbd0f134bec" y="321.817541"/>
      </g>
     </g>
    </g>
   </g>
   <g id="patch_8">
    <path d="M 53.425 543.2 
L 53.425 313.4 
" style="fill:none;stroke:#000000;stroke-linecap:square;stroke-linejoin:miter;stroke-width:0.8;"/>
   </g>
   <g id="patch_9">
    <path d="M 561.7 543.2 
L 561.7 313.4 
" style="fill:none;stroke:#000000;stroke-linecap:square;stroke-linejoin:miter;stroke-width:0.8;"/>
   </g>
   <g id="patch_10">
    <path d="M 53.425 543.2 
L 561.7 543.2 
" style="fill:none;stroke:#000000;stroke-linecap:square;stroke-linejoin:miter;stroke-width:0.8;"/>
   </g>
   <g id="patch_11">
    <path d="M 53.425 313.4 
L 561.7 313.4 
" style="fill:none;stroke:#000000;stroke-linecap:square;stroke-linejoin:miter;stroke-width:0.8;"/>
   </g>
   <g id="text_28">
    <!-- μ marginal posterior -->
    <defs>
     <path d="M 52 44.1875 
Q 55.375 50.25 60.0625 53.125 
Q 64.75 56 71.09375 56 
Q 79.640625 56 84.28125 50.015625 
Q 88.921875 44.046875 88.921875 33.015625 
L 88.921875 0 
L 79.890625 0 
L 79.890625 32.71875 
Q 79.890625 40.578125 77.09375 44.375 
Q 74.3125 48.1875 68.609375 48.1875 
Q 61.625 48.1875 57.5625 43.546875 
Q 53.515625 38.921875 53.515625 30.90625 
L 53.515625 0 
L 44.484375 0 
L 44.484375 32.71875 
Q 44.484375 40.625 41.703125 44.40625 
Q 38.921875 48.1875 33.109375 48.1875 
Q 26.21875 48.1875 22.15625 43.53125 
Q 18.109375 38.875 18.109375 30.90625 
L 18.109375 0 
L 9.078125 0 
L 9.078125 54.6875 
L 18.109375 54.6875 
L 18.109375 46.1875 
Q 21.1875 51.21875 25.484375 53.609375 
Q 29.78125 56 35.6875 56 
Q 41.65625 56 45.828125 52.96875 
Q 50 49.953125 52 44.1875 
z
" id="DejaVuSans-109"/>
     <path d="M 45.40625 27.984375 
Q 45.40625 37.75 41.375 43.109375 
Q 37.359375 48.484375 30.078125 48.484375 
Q 22.859375 48.484375 18.828125 43.109375 
Q 14.796875 37.75 14.796875 27.984375 
Q 14.796875 18.265625 18.828125 12.890625 
Q 22.859375 7.515625 30.078125 7.515625 
Q 37.359375 7.515625 41.375 12.890625 
Q 45.40625 18.265625 45.40625 27.984375 
z
M 54.390625 6.78125 
Q 54.390625 -7.171875 48.1875 -13.984375 
Q 42 -20.796875 29.203125 -20.796875 
Q 24.46875 -20.796875 20.265625 -20.09375 
Q 16.0625 -19.390625 12.109375 -17.921875 
L 12.109375 -9.1875 
Q 16.0625 -11.328125 19.921875 -12.34375 
Q 23.78125 -13.375 27.78125 -13.375 
Q 36.625 -13.375 41.015625 -8.765625 
Q 45.40625 -4.15625 45.40625 5.171875 
L 45.40625 9.625 
Q 42.625 4.78125 38.28125 2.390625 
Q 33.9375 0 27.875 0 
Q 17.828125 0 11.671875 7.65625 
Q 5.515625 15.328125 5.515625 27.984375 
Q 5.515625 40.671875 11.671875 48.328125 
Q 17.828125 56 27.875 56 
Q 33.9375 56 38.28125 53.609375 
Q 42.625 51.21875 45.40625 46.390625 
L 45.40625 54.6875 
L 54.390625 54.6875 
z
" id="DejaVuSans-103"/>
     <path d="M 9.421875 75.984375 
L 18.40625 75.984375 
L 18.40625 0 
L 9.421875 0 
z
" id="DejaVuSans-108"/>
     <path d="M 18.109375 8.203125 
L 18.109375 -20.796875 
L 9.078125 -20.796875 
L 9.078125 54.6875 
L 18.109375 54.6875 
L 18.109375 46.390625 
Q 20.953125 51.265625 25.265625 53.625 
Q 29.59375 56 35.59375 56 
Q 45.5625 56 51.78125 48.09375 
Q 58.015625 40.1875 58.015625 27.296875 
Q 58.015625 14.40625 51.78125 6.484375 
Q 45.5625 -1.421875 35.59375 -1.421875 
Q 29.59375 -1.421875 25.265625 0.953125 
Q 20.953125 3.328125 18.109375 8.203125 
z
M 48.6875 27.296875 
Q 48.6875 37.203125 44.609375 42.84375 
Q 40.53125 48.484375 33.40625 48.484375 
Q 26.265625 48.484375 22.1875 42.84375 
Q 18.109375 37.203125 18.109375 27.296875 
Q 18.109375 17.390625 22.1875 11.75 
Q 26.265625 6.109375 33.40625 6.109375 
Q 40.53125 6.109375 44.609375 11.75 
Q 48.6875 17.390625 48.6875 27.296875 
z
" id="DejaVuSans-112"/>
     <path d="M 44.28125 53.078125 
L 44.28125 44.578125 
Q 40.484375 46.53125 36.375 47.5 
Q 32.28125 48.484375 27.875 48.484375 
Q 21.1875 48.484375 17.84375 46.4375 
Q 14.5 44.390625 14.5 40.28125 
Q 14.5 37.15625 16.890625 35.375 
Q 19.28125 33.59375 26.515625 31.984375 
L 29.59375 31.296875 
Q 39.15625 29.25 43.1875 25.515625 
Q 47.21875 21.78125 47.21875 15.09375 
Q 47.21875 7.46875 41.1875 3.015625 
Q 35.15625 -1.421875 24.609375 -1.421875 
Q 20.21875 -1.421875 15.453125 -0.5625 
Q 10.6875 0.296875 5.421875 2 
L 5.421875 11.28125 
Q 10.40625 8.6875 15.234375 7.390625 
Q 20.0625 6.109375 24.8125 6.109375 
Q 31.15625 6.109375 34.5625 8.28125 
Q 37.984375 10.453125 37.984375 14.40625 
Q 37.984375 18.0625 35.515625 20.015625 
Q 33.0625 21.96875 24.703125 23.78125 
L 21.578125 24.515625 
Q 13.234375 26.265625 9.515625 29.90625 
Q 5.8125 33.546875 5.8125 39.890625 
Q 5.8125 47.609375 11.28125 51.796875 
Q 16.75 56 26.8125 56 
Q 31.78125 56 36.171875 55.265625 
Q 40.578125 54.546875 44.28125 53.078125 
z
" id="DejaVuSans-115"/>
    </defs>
    <g transform="translate(215.820156 307.4)scale(0.18 -0.18)">
     <use xlink:href="#DejaVuSans-956"/>
     <use x="63.623047" xlink:href="#DejaVuSans-32"/>
     <use x="95.410156" xlink:href="#DejaVuSans-109"/>
     <use x="192.822266" xlink:href="#DejaVuSans-97"/>
     <use x="254.101562" xlink:href="#DejaVuSans-114"/>
     <use x="295.199219" xlink:href="#DejaVuSans-103"/>
     <use x="358.675781" xlink:href="#DejaVuSans-105"/>
     <use x="386.458984" xlink:href="#DejaVuSans-110"/>
     <use x="449.837891" xlink:href="#DejaVuSans-97"/>
     <use x="511.117188" xlink:href="#DejaVuSans-108"/>
     <use x="538.900391" xlink:href="#DejaVuSans-32"/>
     <use x="570.6875" xlink:href="#DejaVuSans-112"/>
     <use x="634.164062" xlink:href="#DejaVuSans-111"/>
     <use x="695.345703" xlink:href="#DejaVuSans-115"/>
     <use x="747.445312" xlink:href="#DejaVuSans-116"/>
     <use x="786.654297" xlink:href="#DejaVuSans-101"/>
     <use x="848.177734" xlink:href="#DejaVuSans-114"/>
     <use x="889.291016" xlink:href="#DejaVuSans-105"/>
     <use x="917.074219" xlink:href="#DejaVuSans-111"/>
     <use x="978.255859" xlink:href="#DejaVuSans-114"/>
    </g>
   </g>
   <g id="legend_1">
    <g id="patch_12">
     <path d="M 64.625 349.685 
L 164.59 349.685 
Q 167.79 349.685 167.79 346.485 
L 167.79 324.6 
Q 167.79 321.4 164.59 321.4 
L 64.625 321.4 
Q 61.425 321.4 61.425 324.6 
L 61.425 346.485 
Q 61.425 349.685 64.625 349.685 
z
" style="fill:#ffffff;opacity:0.8;stroke:#cccccc;stroke-linejoin:miter;"/>
    </g>
    <g id="line2d_118">
     <path d="M 67.825 334.3575 
L 99.825 334.3575 
" style="fill:none;stroke:#ffa500;stroke-linecap:square;stroke-width:2;"/>
    </g>
    <g id="line2d_119"/>
    <g id="text_29">
     <!-- mcmc -->
     <g transform="translate(112.625 339.9575)scale(0.16 -0.16)">
      <use xlink:href="#DejaVuSans-109"/>
      <use x="97.412109" xlink:href="#DejaVuSans-99"/>
      <use x="152.392578" xlink:href="#DejaVuSans-109"/>
      <use x="249.804688" xlink:href="#DejaVuSans-99"/>
     </g>
    </g>
   </g>
  </g>
 </g>
 <defs>
  <clipPath id="p4cfddc9f56">
   <rect height="229.8" width="508.275" x="53.425" y="30.8"/>
  </clipPath>
  <clipPath id="p117ef1a523">
   <rect height="229.8" width="508.275" x="53.425" y="313.4"/>
  </clipPath>
 </defs>
</svg>
