<?xml version="1.0" encoding="UTF-8" standalone="no"?>
<!DOCTYPE svg PUBLIC "-//W3C//DTD SVG 1.1//EN"
 "http://www.w3.org/Graphics/SVG/1.1/DTD/svg11.dtd">
<!-- Generated by graphviz version 2.40.1 (20161225.0304)
 -->
<!-- Title: %3 Pages: 1 -->
<svg width="367pt" height="155pt"
 viewBox="0.00 0.00 367.29 155.00" xmlns="http://www.w3.org/2000/svg" xmlns:xlink="http://www.w3.org/1999/xlink">
<g id="graph0" class="graph" transform="scale(1 1) rotate(0) translate(4 151)">
<title>%3</title>
<polygon fill="#ffffff" stroke="transparent" points="-4,4 -4,-151 363.2907,-151 363.2907,4 -4,4"/>
<g id="clust1" class="cluster">
<title>cluster3,275</title>
<path fill="none" stroke="#000000" d="M117.6453,-8C117.6453,-8 241.6453,-8 241.6453,-8 247.6453,-8 253.6453,-14 253.6453,-20 253.6453,-20 253.6453,-71 253.6453,-71 253.6453,-77 247.6453,-83 241.6453,-83 241.6453,-83 117.6453,-83 117.6453,-83 111.6453,-83 105.6453,-77 105.6453,-71 105.6453,-71 105.6453,-20 105.6453,-20 105.6453,-14 111.6453,-8 117.6453,-8"/>
<text text-anchor="middle" x="230.1453" y="-15.8" font-family="Times,serif" font-size="14.00" fill="#000000">3,275</text>
</g>
<!-- α -->
<g id="node1" class="node">
<title>α</title>
<ellipse fill="none" stroke="#000000" cx="52.6453" cy="-129" rx="52.7911" ry="18"/>
<text text-anchor="middle" x="52.6453" y="-125.3" font-family="Times,serif" font-size="14.00" fill="#000000">α ~ Normal</text>
</g>
<!-- chl_i -->
<g id="node4" class="node">
<title>chl_i</title>
<ellipse fill="#d3d3d3" stroke="#000000" cx="179.6453" cy="-57" rx="65.7887" ry="18"/>
<text text-anchor="middle" x="179.6453" y="-53.3" font-family="Times,serif" font-size="14.00" fill="#000000">chl_i ~ Normal</text>
</g>
<!-- α&#45;&gt;chl_i -->
<g id="edge1" class="edge">
<title>α&#45;&gt;chl_i</title>
<path fill="none" stroke="#000000" d="M79.89,-113.5542C97.9665,-103.3061 121.9377,-89.7161 141.8512,-78.4266"/>
<polygon fill="#000000" stroke="#000000" points="143.7062,-81.3983 150.6793,-73.4217 140.2539,-75.3088 143.7062,-81.3983"/>
</g>
<!-- σ -->
<g id="node2" class="node">
<title>σ</title>
<ellipse fill="none" stroke="#000000" cx="179.6453" cy="-129" rx="55.7903" ry="18"/>
<text text-anchor="middle" x="179.6453" y="-125.3" font-family="Times,serif" font-size="14.00" fill="#000000">σ ~ Uniform</text>
</g>
<!-- σ&#45;&gt;chl_i -->
<g id="edge2" class="edge">
<title>σ&#45;&gt;chl_i</title>
<path fill="none" stroke="#000000" d="M179.6453,-110.8314C179.6453,-103.131 179.6453,-93.9743 179.6453,-85.4166"/>
<polygon fill="#000000" stroke="#000000" points="183.1454,-85.4132 179.6453,-75.4133 176.1454,-85.4133 183.1454,-85.4132"/>
</g>
<!-- β -->
<g id="node3" class="node">
<title>β</title>
<ellipse fill="none" stroke="#000000" cx="306.6453" cy="-129" rx="52.7911" ry="18"/>
<text text-anchor="middle" x="306.6453" y="-125.3" font-family="Times,serif" font-size="14.00" fill="#000000">β ~ Normal</text>
</g>
<!-- β&#45;&gt;chl_i -->
<g id="edge3" class="edge">
<title>β&#45;&gt;chl_i</title>
<path fill="none" stroke="#000000" d="M279.4006,-113.5542C261.3242,-103.3061 237.3529,-89.7161 217.4395,-78.4266"/>
<polygon fill="#000000" stroke="#000000" points="219.0367,-75.3088 208.6113,-73.4217 215.5844,-81.3983 219.0367,-75.3088"/>
</g>
</g>
</svg>
